<svg xmlns="http://www.w3.org/2000/svg" xmlns:xlink="http://www.w3.org/1999/xlink" width="40" zoomAndPan="magnify" viewBox="0 0 30 30.000001" height="40" preserveAspectRatio="xMidYMid meet" version="1.2"><defs><clipPath id="85e30904dd"><path d="M 0.484375 4 L 11 4 L 11 15 L 0.484375 15 Z M 0.484375 4 "/></clipPath><clipPath id="73b3d4083d"><path d="M 18 17 L 26 17 L 26 29.03125 L 18 29.03125 Z M 18 17 "/></clipPath><clipPath id="7483effe80"><path d="M 4 29 L 28.789062 29 L 28.789062 29.03125 L 4 29.03125 Z M 4 29 "/></clipPath><clipPath id="927765191f"><path d="M 18 27 L 22 27 L 22 29.03125 L 18 29.03125 Z M 18 27 "/></clipPath><clipPath id="9a758eefcc"><path d="M 19 28 L 22 28 L 22 29.03125 L 19 29.03125 Z M 19 28 "/></clipPath><clipPath id="d0c7d97a84"><path d="M 18 27 L 21 27 L 21 29.03125 L 18 29.03125 Z M 18 27 "/></clipPath></defs><g id="8868e14cce"><path style=" stroke:none;fill-rule:nonzero;fill:#d6dce1;fill-opacity:1;" d="M 25.035156 2.585938 C 25.28125 2.585938 25.484375 2.792969 25.484375 3.042969 L 25.484375 19.101562 C 25.484375 19.351562 25.28125 19.558594 25.035156 19.558594 L 13.695312 19.558594 C 13.445312 19.558594 13.246094 19.351562 13.246094 19.101562 L 13.246094 3.042969 C 13.246094 2.792969 13.445312 2.585938 13.695312 2.585938 L 25.035156 2.585938 M 25.035156 2.492188 L 13.695312 2.492188 C 13.394531 2.492188 13.148438 2.738281 13.148438 3.042969 L 13.148438 19.101562 C 13.148438 19.40625 13.394531 19.652344 13.695312 19.652344 L 25.035156 19.652344 C 25.335938 19.652344 25.578125 19.40625 25.578125 19.101562 L 25.578125 3.042969 C 25.578125 2.738281 25.335938 2.492188 25.035156 2.492188 Z M 25.035156 2.492188 "/><path style=" stroke:none;fill-rule:nonzero;fill:#d6dce1;fill-opacity:1;" d="M 25.578125 4.628906 L 13.152344 4.628906 L 13.152344 3.042969 C 13.152344 2.738281 13.394531 2.492188 13.695312 2.492188 L 25.035156 2.492188 C 25.335938 2.492188 25.582031 2.738281 25.582031 3.042969 L 25.582031 4.628906 Z M 25.578125 4.628906 "/><path style=" stroke:none;fill-rule:nonzero;fill:#ffffff;fill-opacity:1;" d="M 23.015625 3.558594 C 23.015625 3.632812 22.988281 3.695312 22.9375 3.746094 C 22.886719 3.796875 22.828125 3.824219 22.753906 3.824219 C 22.683594 3.824219 22.621094 3.796875 22.570312 3.746094 C 22.519531 3.695312 22.492188 3.632812 22.492188 3.558594 C 22.492188 3.484375 22.519531 3.421875 22.570312 3.371094 C 22.621094 3.320312 22.683594 3.292969 22.753906 3.292969 C 22.828125 3.292969 22.886719 3.320312 22.9375 3.371094 C 22.988281 3.421875 23.015625 3.484375 23.015625 3.558594 Z M 23.015625 3.558594 "/><path style=" stroke:none;fill-rule:nonzero;fill:#ffffff;fill-opacity:1;" d="M 21.625 3.558594 C 21.625 3.632812 21.597656 3.695312 21.546875 3.746094 C 21.496094 3.796875 21.433594 3.824219 21.363281 3.824219 C 21.289062 3.824219 21.230469 3.796875 21.179688 3.746094 C 21.128906 3.695312 21.101562 3.632812 21.101562 3.558594 C 21.101562 3.484375 21.128906 3.421875 21.179688 3.371094 C 21.230469 3.320312 21.289062 3.292969 21.363281 3.292969 C 21.433594 3.292969 21.496094 3.320312 21.546875 3.371094 C 21.597656 3.421875 21.625 3.484375 21.625 3.558594 Z M 21.625 3.558594 "/><path style=" stroke:none;fill-rule:nonzero;fill:#ffffff;fill-opacity:1;" d="M 24.40625 3.558594 C 24.40625 3.632812 24.382812 3.695312 24.332031 3.746094 C 24.28125 3.796875 24.21875 3.824219 24.144531 3.824219 C 24.074219 3.824219 24.011719 3.796875 23.960938 3.746094 C 23.910156 3.695312 23.886719 3.632812 23.886719 3.558594 C 23.886719 3.484375 23.910156 3.421875 23.960938 3.371094 C 24.011719 3.320312 24.074219 3.292969 24.144531 3.292969 C 24.21875 3.292969 24.28125 3.320312 24.332031 3.371094 C 24.382812 3.421875 24.40625 3.484375 24.40625 3.558594 Z M 24.40625 3.558594 "/><path style=" stroke:none;fill-rule:nonzero;fill:#d6dce1;fill-opacity:1;" d="M 15.546875 6.765625 L 23.183594 6.765625 L 23.183594 7.167969 L 15.546875 7.167969 Z M 15.546875 6.765625 "/><path style=" stroke:none;fill-rule:nonzero;fill:#d6dce1;fill-opacity:1;" d="M 15.546875 8.460938 L 23.183594 8.460938 L 23.183594 8.863281 L 15.546875 8.863281 Z M 15.546875 8.460938 "/><path style=" stroke:none;fill-rule:nonzero;fill:#d6dce1;fill-opacity:1;" d="M 15.546875 10.160156 L 23.183594 10.160156 L 23.183594 10.5625 L 15.546875 10.5625 Z M 15.546875 10.160156 "/><g clip-rule="nonzero" clip-path="url(#85e30904dd)"><path style=" stroke:none;fill-rule:nonzero;fill:#d05b71;fill-opacity:1;" d="M 10.660156 9.4375 C 10.660156 9.773438 10.625 10.109375 10.5625 10.441406 C 10.496094 10.773438 10.398438 11.097656 10.273438 11.410156 C 10.144531 11.722656 9.988281 12.019531 9.800781 12.300781 C 9.617188 12.585938 9.40625 12.84375 9.167969 13.085938 C 8.933594 13.324219 8.675781 13.539062 8.398438 13.726562 C 8.121094 13.914062 7.828125 14.074219 7.519531 14.203125 C 7.210938 14.332031 6.894531 14.429688 6.566406 14.496094 C 6.238281 14.5625 5.90625 14.59375 5.574219 14.59375 C 5.238281 14.59375 4.910156 14.5625 4.582031 14.496094 C 4.253906 14.429688 3.9375 14.332031 3.628906 14.203125 C 3.320312 14.074219 3.027344 13.914062 2.75 13.726562 C 2.472656 13.539062 2.214844 13.324219 1.976562 13.085938 C 1.742188 12.84375 1.53125 12.585938 1.347656 12.300781 C 1.160156 12.019531 1.003906 11.722656 0.875 11.410156 C 0.75 11.097656 0.652344 10.773438 0.585938 10.441406 C 0.523438 10.109375 0.488281 9.773438 0.488281 9.4375 C 0.488281 9.097656 0.523438 8.761719 0.585938 8.429688 C 0.652344 8.097656 0.75 7.773438 0.875 7.460938 C 1.003906 7.148438 1.160156 6.851562 1.347656 6.570312 C 1.53125 6.289062 1.742188 6.027344 1.976562 5.789062 C 2.214844 5.550781 2.472656 5.335938 2.75 5.148438 C 3.027344 4.957031 3.320312 4.800781 3.628906 4.671875 C 3.9375 4.539062 4.253906 4.441406 4.582031 4.375 C 4.910156 4.3125 5.238281 4.277344 5.574219 4.277344 C 5.90625 4.277344 6.238281 4.3125 6.566406 4.375 C 6.894531 4.441406 7.210938 4.539062 7.519531 4.671875 C 7.828125 4.800781 8.121094 4.957031 8.398438 5.148438 C 8.675781 5.335938 8.933594 5.550781 9.167969 5.789062 C 9.40625 6.027344 9.617188 6.289062 9.800781 6.570312 C 9.988281 6.851562 10.144531 7.148438 10.273438 7.460938 C 10.398438 7.773438 10.496094 8.097656 10.5625 8.429688 C 10.625 8.761719 10.660156 9.097656 10.660156 9.4375 Z M 10.660156 9.4375 "/></g><path style="fill-rule:nonzero;fill:#ffffff;fill-opacity:1;stroke-width:1.447;stroke-linecap:butt;stroke-linejoin:miter;stroke:#252626;stroke-opacity:1;stroke-miterlimit:10;" d="M 259.303812 362.186595 L 121.482331 362.186595 C 117.777964 362.186595 114.833466 359.190768 114.833466 355.539605 L 114.833466 163.151388 C 114.833466 159.500225 117.777964 156.504399 121.482331 156.504399 L 259.303812 156.504399 C 262.960687 156.504399 265.952677 159.500225 265.952677 163.151388 L 265.952677 355.539605 C 265.952677 359.190768 262.960687 362.186595 259.303812 362.186595 Z M 259.303812 362.186595 " transform="matrix(0.0822509,0,0,0.0834494,-5.925622,-6.025047)"/><path style=" stroke:none;fill-rule:nonzero;fill:#252626;fill-opacity:1;" d="M 15.949219 9.171875 L 3.519531 9.171875 L 3.519531 7.589844 C 3.519531 7.285156 3.761719 7.035156 4.066406 7.035156 L 15.402344 7.035156 C 15.703125 7.035156 15.949219 7.285156 15.949219 7.589844 Z M 15.949219 9.171875 "/><path style=" stroke:none;fill-rule:nonzero;fill:#ffffff;fill-opacity:1;" d="M 13.382812 8.105469 C 13.382812 8.175781 13.359375 8.238281 13.308594 8.292969 C 13.257812 8.34375 13.195312 8.371094 13.125 8.371094 C 13.050781 8.371094 12.988281 8.34375 12.9375 8.292969 C 12.886719 8.238281 12.863281 8.175781 12.863281 8.105469 C 12.863281 8.03125 12.886719 7.96875 12.9375 7.917969 C 12.988281 7.867188 13.050781 7.839844 13.125 7.839844 C 13.195312 7.839844 13.257812 7.867188 13.308594 7.917969 C 13.359375 7.96875 13.382812 8.03125 13.382812 8.105469 Z M 13.382812 8.105469 "/><path style=" stroke:none;fill-rule:nonzero;fill:#ffffff;fill-opacity:1;" d="M 11.992188 8.105469 C 11.992188 8.175781 11.964844 8.238281 11.914062 8.292969 C 11.863281 8.34375 11.804688 8.371094 11.730469 8.371094 C 11.660156 8.371094 11.597656 8.34375 11.546875 8.292969 C 11.496094 8.238281 11.46875 8.175781 11.46875 8.105469 C 11.46875 8.03125 11.496094 7.96875 11.546875 7.917969 C 11.597656 7.867188 11.660156 7.839844 11.730469 7.839844 C 11.804688 7.839844 11.863281 7.867188 11.914062 7.917969 C 11.964844 7.96875 11.992188 8.03125 11.992188 8.105469 Z M 11.992188 8.105469 "/><path style=" stroke:none;fill-rule:nonzero;fill:#ffffff;fill-opacity:1;" d="M 14.777344 8.105469 C 14.777344 8.175781 14.75 8.238281 14.699219 8.292969 C 14.648438 8.34375 14.585938 8.371094 14.515625 8.371094 C 14.445312 8.371094 14.382812 8.34375 14.332031 8.292969 C 14.28125 8.238281 14.253906 8.175781 14.253906 8.105469 C 14.253906 8.03125 14.28125 7.96875 14.332031 7.917969 C 14.382812 7.867188 14.445312 7.839844 14.515625 7.839844 C 14.585938 7.839844 14.648438 7.867188 14.699219 7.917969 C 14.75 7.96875 14.777344 8.03125 14.777344 8.105469 Z M 14.777344 8.105469 "/><path style=" stroke:none;fill-rule:nonzero;fill:#d05b71;fill-opacity:1;" d="M 7.40625 21.710938 L 4.8125 21.710938 C 4.671875 21.710938 4.554688 21.59375 4.554688 21.449219 L 4.554688 18.820312 C 4.554688 18.675781 4.671875 18.558594 4.8125 18.558594 L 7.40625 18.558594 C 7.546875 18.558594 7.664062 18.675781 7.664062 18.820312 L 7.664062 21.449219 C 7.664062 21.59375 7.546875 21.710938 7.40625 21.710938 Z M 7.40625 21.710938 "/><path style=" stroke:none;fill-rule:nonzero;fill:#ffffff;fill-opacity:1;" d="M 7.183594 20.136719 C 7.183594 20.28125 7.15625 20.417969 7.101562 20.554688 C 7.046875 20.6875 6.96875 20.804688 6.871094 20.90625 C 6.769531 21.007812 6.652344 21.089844 6.519531 21.144531 C 6.386719 21.199219 6.25 21.226562 6.109375 21.226562 C 5.964844 21.226562 5.828125 21.199219 5.695312 21.144531 C 5.566406 21.089844 5.449219 21.007812 5.347656 20.90625 C 5.246094 20.804688 5.167969 20.6875 5.113281 20.554688 C 5.058594 20.417969 5.03125 20.28125 5.03125 20.136719 C 5.03125 19.992188 5.058594 19.851562 5.113281 19.71875 C 5.167969 19.585938 5.246094 19.464844 5.347656 19.363281 C 5.449219 19.261719 5.566406 19.183594 5.695312 19.128906 C 5.828125 19.070312 5.964844 19.042969 6.109375 19.042969 C 6.25 19.042969 6.386719 19.070312 6.519531 19.128906 C 6.652344 19.183594 6.769531 19.261719 6.871094 19.363281 C 6.96875 19.464844 7.046875 19.585938 7.101562 19.71875 C 7.15625 19.851562 7.183594 19.992188 7.183594 20.136719 Z M 7.183594 20.136719 "/><path style=" stroke:none;fill-rule:nonzero;fill:#d05b71;fill-opacity:1;" d="M 6.574219 20.136719 L 5.820312 19.695312 L 5.820312 20.578125 Z M 6.574219 20.136719 "/><path style=" stroke:none;fill-rule:nonzero;fill:#d05b71;fill-opacity:1;" d="M 7.40625 17.792969 L 4.8125 17.792969 C 4.671875 17.792969 4.554688 17.675781 4.554688 17.53125 L 4.554688 14.902344 C 4.554688 14.757812 4.671875 14.640625 4.8125 14.640625 L 7.40625 14.640625 C 7.546875 14.640625 7.664062 14.757812 7.664062 14.902344 L 7.664062 17.53125 C 7.664062 17.675781 7.546875 17.792969 7.40625 17.792969 Z M 7.40625 17.792969 "/><path style=" stroke:none;fill-rule:nonzero;fill:#ffffff;fill-opacity:1;" d="M 7.425781 17.148438 L 4.917969 17.140625 L 4.921875 15.445312 L 7.429688 15.457031 Z M 7.425781 17.148438 "/><path style=" stroke:none;fill-rule:nonzero;fill:#ffffff;fill-opacity:1;" d="M 5.027344 15.554688 L 7.324219 15.5625 L 7.320312 17.042969 L 5.023438 17.035156 Z M 5.027344 15.554688 "/><path style=" stroke:none;fill-rule:nonzero;fill:#252626;fill-opacity:1;" d="M 5.183594 16.59375 L 5.363281 16.414062 C 5.472656 16.300781 5.65625 16.300781 5.765625 16.414062 L 5.894531 16.546875 C 5.898438 16.554688 5.910156 16.554688 5.917969 16.546875 L 6.390625 16.074219 C 6.464844 15.996094 6.589844 15.996094 6.667969 16.074219 L 7.164062 16.578125 C 7.164062 16.582031 7.167969 16.589844 7.167969 16.59375 L 7.167969 16.894531 C 7.167969 16.90625 7.15625 16.914062 7.148438 16.914062 L 5.195312 16.90625 C 5.1875 16.90625 5.179688 16.898438 5.179688 16.886719 L 5.179688 16.605469 C 5.179688 16.601562 5.179688 16.59375 5.183594 16.59375 Z M 5.183594 16.59375 "/><path style=" stroke:none;fill-rule:nonzero;fill:#252626;fill-opacity:1;" d="M 5.675781 16.117188 C 5.675781 16.199219 5.636719 16.238281 5.558594 16.238281 C 5.480469 16.238281 5.441406 16.199219 5.441406 16.117188 C 5.441406 16.039062 5.480469 16 5.558594 16 C 5.636719 16 5.675781 16.039062 5.675781 16.117188 Z M 5.675781 16.117188 "/><path style=" stroke:none;fill-rule:nonzero;fill:#d05b71;fill-opacity:1;" d="M 7.40625 14.171875 L 4.8125 14.171875 C 4.671875 14.171875 4.554688 14.054688 4.554688 13.910156 L 4.554688 11.277344 C 4.554688 11.132812 4.671875 11.019531 4.8125 11.019531 L 7.40625 11.019531 C 7.546875 11.019531 7.664062 11.132812 7.664062 11.277344 L 7.664062 13.910156 C 7.664062 14.054688 7.546875 14.171875 7.40625 14.171875 Z M 7.40625 14.171875 "/><path style=" stroke:none;fill-rule:nonzero;fill:#ffffff;fill-opacity:1;" d="M 6.847656 12.191406 C 6.847656 12.203125 6.839844 12.210938 6.828125 12.210938 C 6.8125 12.210938 6.796875 12.175781 6.78125 12.113281 C 6.75 11.984375 6.707031 11.894531 6.65625 11.847656 C 6.601562 11.800781 6.515625 11.777344 6.402344 11.777344 C 6.355469 11.777344 6.316406 11.777344 6.28125 11.777344 L 6.28125 13.316406 C 6.285156 13.359375 6.296875 13.386719 6.316406 13.398438 C 6.339844 13.410156 6.398438 13.421875 6.496094 13.429688 C 6.511719 13.429688 6.523438 13.4375 6.523438 13.453125 C 6.523438 13.46875 6.511719 13.476562 6.484375 13.476562 C 6.476562 13.476562 6.464844 13.476562 6.445312 13.472656 C 6.421875 13.472656 6.398438 13.472656 6.382812 13.472656 L 6.125 13.464844 L 5.703125 13.476562 C 5.679688 13.476562 5.667969 13.46875 5.667969 13.457031 C 5.667969 13.445312 5.671875 13.441406 5.675781 13.4375 C 5.683594 13.4375 5.710938 13.433594 5.757812 13.433594 C 5.851562 13.429688 5.898438 13.410156 5.90625 13.367188 C 5.910156 13.347656 5.910156 13.175781 5.910156 12.851562 L 5.910156 11.777344 C 5.894531 11.777344 5.871094 11.777344 5.847656 11.777344 C 5.710938 11.777344 5.617188 11.804688 5.554688 11.851562 C 5.496094 11.902344 5.457031 11.988281 5.4375 12.113281 C 5.425781 12.1875 5.410156 12.226562 5.390625 12.226562 C 5.378906 12.226562 5.371094 12.214844 5.371094 12.195312 C 5.371094 12.183594 5.375 12.136719 5.378906 12.058594 C 5.394531 11.890625 5.402344 11.777344 5.40625 11.71875 L 5.625 11.71875 C 5.628906 11.71875 5.6875 11.71875 5.796875 11.722656 C 5.90625 11.722656 6.046875 11.726562 6.21875 11.726562 C 6.3125 11.726562 6.398438 11.726562 6.472656 11.722656 C 6.546875 11.722656 6.617188 11.722656 6.679688 11.722656 C 6.734375 11.722656 6.773438 11.71875 6.804688 11.71875 C 6.808594 11.828125 6.820312 11.964844 6.839844 12.136719 C 6.84375 12.164062 6.847656 12.183594 6.847656 12.191406 Z M 6.847656 12.191406 "/><path style=" stroke:none;fill-rule:nonzero;fill:#d6dce1;fill-opacity:1;" d="M 8.929688 12.097656 L 11.230469 12.097656 L 11.230469 12.351562 L 8.929688 12.351562 Z M 8.929688 12.097656 "/><path style=" stroke:none;fill-rule:nonzero;fill:#d6dce1;fill-opacity:1;" d="M 8.929688 12.835938 L 11.230469 12.835938 L 11.230469 13.089844 L 8.929688 13.089844 Z M 8.929688 12.835938 "/><path style=" stroke:none;fill-rule:nonzero;fill:#d6dce1;fill-opacity:1;" d="M 8.929688 15.71875 L 11.230469 15.71875 L 11.230469 15.972656 L 8.929688 15.972656 Z M 8.929688 15.71875 "/><path style=" stroke:none;fill-rule:nonzero;fill:#d6dce1;fill-opacity:1;" d="M 8.929688 16.457031 L 11.230469 16.457031 L 11.230469 16.710938 L 8.929688 16.710938 Z M 8.929688 16.457031 "/><path style=" stroke:none;fill-rule:nonzero;fill:#d6dce1;fill-opacity:1;" d="M 8.929688 19.636719 L 11.230469 19.636719 L 11.230469 19.894531 L 8.929688 19.894531 Z M 8.929688 19.636719 "/><path style=" stroke:none;fill-rule:nonzero;fill:#d6dce1;fill-opacity:1;" d="M 8.929688 20.375 L 11.230469 20.375 L 11.230469 20.632812 L 8.929688 20.632812 Z M 8.929688 20.375 "/><path style=" stroke:none;fill-rule:nonzero;fill:#7761e1;fill-opacity:1;" d="M 14.757812 13.941406 L 12.410156 13.941406 C 12.324219 13.941406 12.253906 13.871094 12.253906 13.785156 L 12.253906 11.402344 C 12.253906 11.316406 12.324219 11.246094 12.410156 11.246094 L 14.757812 11.246094 C 14.84375 11.246094 14.914062 11.316406 14.914062 11.402344 L 14.914062 13.785156 C 14.914062 13.871094 14.84375 13.941406 14.757812 13.941406 Z M 14.757812 13.941406 "/><path style="fill:none;stroke-width:2.597;stroke-linecap:round;stroke-linejoin:round;stroke:#ffffff;stroke-opacity:1;stroke-miterlimit:10;" d="M 226.724371 220.586994 L 230.381247 229.059566 L 250.470319 217.076261 " transform="matrix(0.0822509,0,0,0.0834494,-5.925622,-6.025047)"/><path style=" stroke:none;fill-rule:nonzero;fill:#7761e1;fill-opacity:1;" d="M 14.757812 17.5625 L 12.410156 17.5625 C 12.324219 17.5625 12.253906 17.492188 12.253906 17.40625 L 12.253906 15.023438 C 12.253906 14.9375 12.324219 14.867188 12.410156 14.867188 L 14.757812 14.867188 C 14.84375 14.867188 14.914062 14.9375 14.914062 15.023438 L 14.914062 17.40625 C 14.914062 17.496094 14.84375 17.5625 14.757812 17.5625 Z M 14.757812 17.5625 "/><path style="fill:none;stroke-width:2.597;stroke-linecap:round;stroke-linejoin:round;stroke:#ffffff;stroke-opacity:1;stroke-miterlimit:10;" d="M 226.724371 263.979665 L 230.381247 272.452236 L 250.470319 260.468931 " transform="matrix(0.0822509,0,0,0.0834494,-5.925622,-6.025047)"/><path style=" stroke:none;fill-rule:nonzero;fill:#e8a39c;fill-opacity:1;" d="M 18.820312 25.003906 C 18.742188 25.429688 17.683594 25.972656 16.625 25.214844 C 15.570312 24.460938 14.554688 22.8125 14.554688 22.8125 L 15.441406 22.011719 C 16.066406 22.132812 17.125 23.269531 17.1875 23.121094 C 17.21875 23.050781 17.316406 22.164062 17.417969 21.21875 C 17.449219 20.964844 17.476562 20.703125 17.503906 20.453125 C 17.582031 19.765625 17.652344 19.160156 17.695312 18.960938 C 17.8125 18.417969 18.671875 17.964844 18.671875 17.964844 L 18.480469 18.871094 L 18.730469 20.265625 L 18.859375 20.988281 C 18.859375 20.988281 18.863281 21.183594 18.863281 21.492188 C 18.871094 22.496094 18.878906 24.679688 18.820312 25.003906 Z M 18.820312 25.003906 "/><path style=" stroke:none;fill-rule:nonzero;fill:#252626;fill-opacity:1;" d="M 18.863281 21.492188 L 17.417969 21.21875 C 17.449219 20.964844 17.476562 20.703125 17.503906 20.453125 L 18.730469 20.265625 L 18.859375 20.992188 C 18.859375 20.992188 18.863281 21.1875 18.863281 21.492188 Z M 18.863281 21.492188 "/><path style=" stroke:none;fill-rule:nonzero;fill:#7761e1;fill-opacity:1;" d="M 18.671875 17.964844 C 18.671875 17.964844 17.710938 18.414062 17.578125 19.097656 C 17.441406 19.78125 17.359375 21.015625 17.359375 21.015625 L 19.320312 21.070312 Z M 18.671875 17.964844 "/><path style="fill:none;stroke-width:0.415;stroke-linecap:butt;stroke-linejoin:miter;stroke:#252626;stroke-opacity:1;stroke-miterlimit:10;" d="M 281.007608 349.267094 C 281.007608 349.267094 288.416343 353.714023 291.978235 360.220584 " transform="matrix(0.0822509,0,0,0.0834494,-5.925622,-6.025047)"/><path style=" stroke:none;fill-rule:nonzero;fill:#e8a39c;fill-opacity:1;" d="M 23.953125 17.34375 C 23.953125 17.34375 23.035156 17.203125 22.648438 16.75 L 20.65625 17.027344 C 20.65625 17.027344 20.484375 17.226562 19.671875 17.496094 L 19.230469 18.9375 C 19.230469 18.9375 21.277344 20.851562 21.328125 20.84375 C 21.375 20.835938 24.425781 19.484375 24.425781 19.484375 L 24.472656 17.996094 Z M 23.953125 17.34375 "/><path style=" stroke:none;fill-rule:nonzero;fill:#e8a39c;fill-opacity:1;" d="M 22.976562 17.507812 L 20.648438 17.980469 L 20.644531 16.730469 C 20.644531 16.730469 19.722656 17.0625 19.300781 16.609375 C 18.953125 16.230469 18.976562 15.082031 19.019531 14.515625 C 19.027344 14.425781 19.035156 14.351562 19.042969 14.296875 C 19.042969 14.277344 19.046875 14.261719 19.046875 14.25 C 19.050781 14.242188 19.050781 14.230469 19.050781 14.222656 C 19.058594 14.148438 19.058594 14.082031 19.050781 14.015625 C 19.050781 13.988281 19.046875 13.960938 19.042969 13.9375 C 19.019531 13.765625 18.980469 13.597656 19.042969 13.308594 C 19.140625 12.859375 20.1875 11.058594 21.714844 11.945312 C 23.242188 12.832031 23.761719 13.976562 23.476562 14.589844 C 23.191406 15.207031 22.785156 16.042969 22.785156 16.042969 Z M 22.976562 17.507812 "/><path style=" stroke:none;fill-rule:nonzero;fill:#252626;fill-opacity:1;" d="M 23.871094 13.984375 C 23.914062 13.320312 23.398438 11.902344 22.5 11.421875 C 21.601562 10.941406 20.195312 10.9375 19.410156 12.042969 C 18.84375 12.648438 18.972656 13.707031 18.972656 13.707031 C 19.363281 13.613281 19.816406 13.050781 19.816406 13.050781 C 19.816406 13.050781 19.722656 13.410156 19.890625 13.867188 C 20.058594 14.320312 20.625 14.949219 21.1875 15.117188 C 21.75 15.285156 22.011719 15.097656 22.214844 15.304688 C 22.414062 15.511719 22.785156 16.042969 22.785156 16.042969 C 22.785156 16.042969 23.042969 15.863281 23.148438 15.734375 C 23.253906 15.605469 23.828125 14.644531 23.871094 13.984375 Z M 23.871094 13.984375 "/><path style=" stroke:none;fill-rule:nonzero;fill:#252626;fill-opacity:1;" d="M 25.554688 13.328125 C 25.554688 13.503906 25.519531 13.671875 25.457031 13.835938 C 25.390625 13.996094 25.292969 14.140625 25.171875 14.265625 C 25.050781 14.386719 24.910156 14.484375 24.75 14.550781 C 24.589844 14.617188 24.425781 14.652344 24.25 14.652344 C 24.078125 14.652344 23.914062 14.617188 23.753906 14.550781 C 23.59375 14.484375 23.453125 14.386719 23.332031 14.265625 C 23.207031 14.140625 23.113281 13.996094 23.046875 13.835938 C 22.980469 13.671875 22.949219 13.503906 22.949219 13.328125 C 22.949219 13.152344 22.980469 12.984375 23.046875 12.824219 C 23.113281 12.660156 23.207031 12.519531 23.332031 12.394531 C 23.453125 12.269531 23.59375 12.175781 23.753906 12.109375 C 23.914062 12.042969 24.078125 12.007812 24.25 12.007812 C 24.425781 12.007812 24.589844 12.042969 24.75 12.109375 C 24.910156 12.175781 25.050781 12.269531 25.171875 12.394531 C 25.292969 12.519531 25.390625 12.660156 25.453125 12.824219 C 25.519531 12.984375 25.554688 13.152344 25.554688 13.328125 Z M 25.554688 13.328125 "/><path style="fill:none;stroke-width:0.535;stroke-linecap:round;stroke-linejoin:round;stroke:#252626;stroke-opacity:1;stroke-miterlimit:10;" d="M 323.037935 272.686285 C 323.037935 272.686285 327.16973 271.141562 331.871427 268.567024 " transform="matrix(0.0822509,0,0,0.0834494,-5.925622,-6.025047)"/><path style=" stroke:none;fill-rule:nonzero;fill:#ffffff;fill-opacity:1;" d="M 19.125 15.660156 C 19.125 15.660156 19.269531 15.917969 19.601562 15.972656 C 19.601562 15.972656 19.402344 16.152344 19.203125 16.03125 C 19.003906 15.910156 19.125 15.660156 19.125 15.660156 Z M 19.125 15.660156 "/><path style="fill:none;stroke-width:0.535;stroke-linecap:round;stroke-linejoin:round;stroke:#252626;stroke-opacity:1;stroke-miterlimit:10;" d="M 306.320788 250.919735 C 306.320788 250.919735 303.946193 255.085806 304.753555 255.507094 C 305.608409 255.975192 306.890691 256.115621 306.890691 256.115621 " transform="matrix(0.0822509,0,0,0.0834494,-5.925622,-6.025047)"/><path style=" stroke:none;fill-rule:nonzero;fill:#252626;fill-opacity:1;" d="M 19.460938 14.5 C 19.460938 14.5 19.707031 14.503906 20.105469 14.890625 Z M 19.460938 14.5 "/><path style=" stroke:none;fill-rule:nonzero;fill:#252626;fill-opacity:1;" d="M 19.699219 14.78125 C 19.761719 14.828125 19.769531 14.882812 19.722656 14.941406 C 19.675781 15 19.621094 15.003906 19.5625 14.957031 C 19.503906 14.90625 19.496094 14.851562 19.542969 14.792969 C 19.589844 14.734375 19.640625 14.730469 19.699219 14.78125 Z M 19.699219 14.78125 "/><path style=" stroke:none;fill-rule:nonzero;fill:#252626;fill-opacity:1;" d="M 19.65625 14.757812 C 19.65625 14.757812 19.835938 14.792969 19.890625 14.980469 C 19.890625 14.980469 19.78125 14.867188 19.679688 14.84375 Z M 19.65625 14.757812 "/><path style=" stroke:none;fill-rule:nonzero;fill:#252626;fill-opacity:1;" d="M 19.050781 14.015625 L 19.335938 14.359375 C 19.335938 14.359375 19.308594 14.1875 19.039062 13.9375 Z M 19.050781 14.015625 "/><path style=" stroke:none;fill-rule:nonzero;fill:#252626;fill-opacity:1;" d="M 19.132812 14.5 C 19.101562 14.527344 19.058594 14.53125 19.019531 14.515625 C 19.027344 14.425781 19.035156 14.351562 19.039062 14.296875 C 19.039062 14.296875 19.039062 14.296875 19.042969 14.296875 C 19.082031 14.292969 19.121094 14.304688 19.148438 14.339844 C 19.152344 14.347656 19.15625 14.351562 19.160156 14.359375 C 19.164062 14.363281 19.164062 14.367188 19.164062 14.367188 C 19.1875 14.414062 19.175781 14.46875 19.132812 14.5 Z M 19.132812 14.5 "/><path style=" stroke:none;fill-rule:nonzero;fill:#252626;fill-opacity:1;" d="M 19.164062 14.367188 L 19.078125 14.355469 C 19.070312 14.335938 19.054688 14.316406 19.042969 14.296875 C 19.042969 14.277344 19.042969 14.261719 19.046875 14.25 C 19.050781 14.242188 19.050781 14.230469 19.050781 14.222656 C 19.117188 14.269531 19.148438 14.332031 19.160156 14.359375 C 19.164062 14.363281 19.164062 14.367188 19.164062 14.367188 Z M 19.164062 14.367188 "/><path style=" stroke:none;fill-rule:nonzero;fill:#e8a39c;fill-opacity:1;" d="M 21.644531 16.046875 C 22.238281 15.9375 22.929688 15.203125 22.515625 14.949219 C 22.105469 14.695312 21.738281 15.199219 21.738281 15.199219 "/><path style=" stroke:none;fill-rule:nonzero;fill:#252626;fill-opacity:1;" d="M 21.867188 15.332031 C 21.867188 15.332031 22.136719 15.113281 22.285156 15.261719 C 22.433594 15.40625 21.914062 15.683594 21.914062 15.683594 "/><g clip-rule="nonzero" clip-path="url(#73b3d4083d)"><path style=" stroke:none;fill-rule:nonzero;fill:#7761e1;fill-opacity:1;" d="M 25.28125 26.367188 C 25.21875 25.269531 25.257812 22.671875 25.246094 21.230469 C 25.230469 19.785156 25.523438 17.945312 25.523438 17.945312 C 25.523438 17.945312 24.617188 17.59375 24.589844 17.582031 C 24.492188 17.546875 24.046875 17.375 23.953125 17.34375 L 23.070312 17.054688 L 21.234375 18.929688 L 20.496094 17.132812 L 19.671875 17.496094 C 19.539062 17.554688 19.179688 17.703125 19.054688 17.765625 C 18.902344 17.84375 18.765625 17.914062 18.667969 17.960938 C 18.667969 17.960938 18.160156 18.835938 18.296875 20.03125 C 18.433594 21.222656 18.789062 23.347656 18.726562 24.339844 C 18.667969 25.335938 18.054688 28.84375 18.117188 29.023438 C 18.175781 29.203125 22.621094 28.945312 23.550781 29.039062 C 24.476562 29.132812 25.390625 29.226562 25.507812 29.054688 C 25.625 28.882812 25.347656 27.46875 25.28125 26.367188 Z M 25.28125 26.367188 "/></g><path style="fill:none;stroke-width:0.415;stroke-linecap:butt;stroke-linejoin:miter;stroke:#252626;stroke-opacity:1;stroke-miterlimit:10;" d="M 356.804673 279.567324 L 328.214552 308.870249 L 318.098778 281.673764 " transform="matrix(0.0822509,0,0,0.0834494,-5.925622,-6.025047)"/><path style=" stroke:none;fill-rule:nonzero;fill:#e8a39c;fill-opacity:1;" d="M 15.496094 22.320312 C 15.496094 22.320312 15.457031 21.992188 15.390625 21.597656 C 15.328125 21.207031 15.246094 20.820312 15.003906 20.574219 C 14.761719 20.328125 14.273438 19.90625 13.992188 19.929688 C 13.714844 19.953125 13.328125 20.179688 13.273438 20.308594 C 13.222656 20.433594 13.304688 20.492188 13.304688 20.492188 C 13.304688 20.492188 13.105469 20.558594 13.039062 20.65625 C 12.972656 20.757812 13.039062 20.828125 13.039062 20.828125 C 13.039062 20.828125 12.804688 20.914062 12.789062 21.023438 C 12.773438 21.136719 12.902344 21.234375 13.050781 21.1875 C 13.195312 21.136719 13.667969 21.144531 13.78125 21.292969 C 13.890625 21.445312 14.011719 22.160156 14.261719 22.507812 C 14.421875 22.734375 14.59375 22.800781 14.59375 22.800781 Z M 15.496094 22.320312 "/><g clip-rule="nonzero" clip-path="url(#7483effe80)"><path style=" stroke:none;fill-rule:nonzero;fill:#252626;fill-opacity:1;" d="M 28.785156 29.191406 L 4.015625 29.191406 L 4.015625 29.039062 L 28.785156 29.039062 Z M 28.785156 29.191406 "/></g><path style=" stroke:none;fill-rule:nonzero;fill:#e8a39c;fill-opacity:1;" d="M 26.898438 22.394531 C 26.890625 23.015625 26.859375 24.003906 26.765625 24.773438 C 26.671875 25.503906 26.53125 26.191406 25.871094 26.640625 C 24.761719 27.394531 21.707031 28.863281 21.707031 28.863281 L 20.964844 27.699219 C 20.964844 27.699219 21.179688 27.578125 22.175781 26.730469 C 22.90625 26.105469 24.675781 24.894531 24.675781 24.894531 L 24.457031 20.894531 L 25.75 20.164062 L 26.898438 21.800781 C 26.898438 21.800781 26.898438 21.839844 26.898438 21.914062 C 26.902344 22.015625 26.898438 22.183594 26.898438 22.394531 Z M 26.898438 22.394531 "/><path style=" stroke:none;fill-rule:nonzero;fill:#252626;fill-opacity:1;" d="M 26.898438 22.394531 L 24.539062 21.976562 L 26.796875 21.765625 L 26.898438 21.914062 C 26.902344 22.015625 26.898438 22.183594 26.898438 22.394531 Z M 26.898438 22.394531 "/><path style=" stroke:none;fill-rule:nonzero;fill:#7761e1;fill-opacity:1;" d="M 25.523438 17.945312 C 25.523438 17.945312 26.488281 18.308594 26.714844 19.542969 C 26.945312 20.8125 26.925781 21.964844 26.878906 21.953125 L 24.234375 21.988281 L 24.371094 18.945312 Z M 25.523438 17.945312 "/><path style="fill:none;stroke-width:0.415;stroke-linecap:butt;stroke-linejoin:miter;stroke:#252626;stroke-opacity:1;stroke-miterlimit:10;" d="M 369.912436 335.879495 L 369.01009 320.993984 " transform="matrix(0.0822509,0,0,0.0834494,-5.925622,-6.025047)"/><path style="fill:none;stroke-width:0.415;stroke-linecap:butt;stroke-linejoin:miter;stroke:#252626;stroke-opacity:1;stroke-miterlimit:10;" d="M 296.015047 324.223859 L 294.162863 311.444787 " transform="matrix(0.0822509,0,0,0.0834494,-5.925622,-6.025047)"/><g clip-rule="nonzero" clip-path="url(#927765191f)"><path style=" stroke:none;fill-rule:nonzero;fill:#e8a39c;fill-opacity:1;" d="M 20.234375 29.636719 C 20.328125 29.488281 20.476562 29.378906 21.066406 29.214844 C 21.417969 29.117188 21.574219 28.882812 21.710938 28.871094 L 21.527344 27.640625 C 21.289062 27.679688 20.835938 27.601562 20.523438 27.59375 C 20.128906 27.582031 19.65625 27.476562 19.421875 27.691406 C 19.023438 28.058594 18.589844 28.585938 18.734375 28.730469 C 18.882812 28.875 19.359375 28.457031 19.359375 28.457031 C 19.359375 28.457031 19.144531 28.742188 19.261719 28.917969 C 19.378906 29.09375 19.65625 29.042969 19.65625 29.042969 C 19.605469 29.300781 19.925781 29.378906 19.925781 29.378906 C 19.894531 29.609375 20.15625 29.753906 20.234375 29.636719 Z M 20.234375 29.636719 "/></g><g clip-rule="nonzero" clip-path="url(#9a758eefcc)"><path style="fill:none;stroke-width:0.614;stroke-linecap:butt;stroke-linejoin:miter;stroke:#252626;stroke-opacity:1;stroke-miterlimit:10;" d="M 314.299426 424.30318 C 314.299426 424.30318 315.866659 421.166924 319.571027 419.294533 " transform="matrix(0.0822509,0,0,0.0834494,-5.925622,-6.025047)"/></g><g clip-rule="nonzero" clip-path="url(#d0c7d97a84)"><path style="fill:none;stroke-width:0.614;stroke-linecap:butt;stroke-linejoin:miter;stroke:#252626;stroke-opacity:1;stroke-miterlimit:10;" d="M 311.022485 420.277538 C 311.022485 420.277538 312.874669 416.158277 316.199102 414.005027 " transform="matrix(0.0822509,0,0,0.0834494,-5.925622,-6.025047)"/><path style="fill:none;stroke-width:0.614;stroke-linecap:butt;stroke-linejoin:miter;stroke:#252626;stroke-opacity:1;stroke-miterlimit:10;" d="M 307.413101 413.25607 C 307.413101 413.25607 309.740204 410.119815 313.492064 408.481472 " transform="matrix(0.0822509,0,0,0.0834494,-5.925622,-6.025047)"/></g><path style=" stroke:none;fill-rule:nonzero;fill:#7761e1;fill-opacity:1;" d="M 14.757812 21.484375 L 12.410156 21.484375 C 12.324219 21.484375 12.253906 21.414062 12.253906 21.328125 L 12.253906 18.945312 C 12.253906 18.859375 12.324219 18.785156 12.410156 18.785156 L 14.757812 18.785156 C 14.84375 18.785156 14.914062 18.859375 14.914062 18.945312 L 14.914062 21.328125 C 14.914062 21.414062 14.84375 21.484375 14.757812 21.484375 Z M 14.757812 21.484375 "/><path style=" stroke:none;fill-rule:nonzero;fill:#e8a39c;fill-opacity:1;" d="M 14.550781 22.355469 L 14.929688 21.386719 L 14.882812 21.238281 C 14.886719 21.246094 14.890625 21.253906 14.890625 21.261719 C 14.917969 21.339844 14.925781 21.386719 14.925781 21.386719 C 14.925781 21.386719 14.921875 21.339844 14.90625 21.257812 C 14.886719 21.175781 14.859375 21.058594 14.800781 20.925781 C 14.769531 20.859375 14.734375 20.789062 14.675781 20.726562 C 14.621094 20.660156 14.535156 20.613281 14.441406 20.59375 C 14.351562 20.578125 14.246094 20.574219 14.15625 20.644531 C 14.109375 20.679688 14.089844 20.753906 14.113281 20.808594 C 14.128906 20.867188 14.164062 20.902344 14.183594 20.941406 C 14.273438 21.097656 14.289062 21.289062 14.277344 21.464844 C 14.273438 21.554688 14.261719 21.632812 14.257812 21.722656 C 14.253906 21.808594 14.273438 21.886719 14.296875 21.957031 C 14.335938 22.066406 14.386719 22.152344 14.433594 22.214844 C 14.445312 22.230469 14.457031 22.246094 14.464844 22.257812 C 14.515625 22.324219 14.550781 22.355469 14.550781 22.355469 Z M 14.550781 22.355469 "/><path style="fill:none;stroke-width:0.444;stroke-linecap:round;stroke-linejoin:round;stroke:#252626;stroke-opacity:1;stroke-miterlimit:10;" d="M 253.557292 328.483549 C 253.557292 328.483549 253.462308 327.921832 253.272341 326.938826 C 253.034881 325.955821 252.702438 324.551527 251.99006 322.959995 C 251.610124 322.164228 251.182697 321.321652 250.470319 320.572696 C 249.805432 319.776929 248.760611 319.215212 247.668297 318.981163 C 246.528492 318.793924 245.246211 318.747114 244.153897 319.58969 C 243.583994 320.010978 243.346535 320.900364 243.631486 321.555701 C 243.868946 322.257848 244.248881 322.679136 244.48634 323.147234 C 245.578654 325.019625 245.768621 327.313305 245.673638 329.419745 C 245.578654 330.49637 245.436178 331.432566 245.388686 332.509191 C 245.341194 333.539006 245.578654 334.475202 245.863605 335.317778 C 246.338524 336.628452 247.003411 337.658267 247.525821 338.407224 L 247.573313 338.407224 C 247.668297 338.594463 247.810773 338.781702 247.905757 338.922131 " transform="matrix(0.0822509,0,0,0.0834494,-5.925622,-6.025047)"/><path style=" stroke:none;fill-rule:nonzero;fill:#ffffff;fill-opacity:1;" d="M 5.960938 6.246094 C 5.910156 6.246094 5.871094 6.207031 5.871094 6.15625 L 5.871094 0.300781 C 5.871094 0.25 5.910156 0.210938 5.960938 0.210938 L 11.734375 0.210938 C 11.78125 0.210938 11.820312 0.25 11.820312 0.300781 L 11.820312 6.15625 C 11.820312 6.207031 11.78125 6.246094 11.734375 6.246094 Z M 5.960938 6.246094 "/><path style=" stroke:none;fill-rule:nonzero;fill:#d6dce1;fill-opacity:1;" d="M 11.734375 0.257812 C 11.753906 0.257812 11.773438 0.277344 11.773438 0.300781 L 11.773438 6.15625 C 11.773438 6.179688 11.753906 6.199219 11.734375 6.199219 L 5.960938 6.199219 C 5.9375 6.199219 5.917969 6.179688 5.917969 6.15625 L 5.917969 0.300781 C 5.917969 0.277344 5.9375 0.257812 5.960938 0.257812 L 11.734375 0.257812 M 11.734375 0.164062 L 5.960938 0.164062 C 5.886719 0.164062 5.824219 0.222656 5.824219 0.300781 L 5.824219 6.15625 C 5.824219 6.230469 5.886719 6.292969 5.960938 6.292969 L 11.734375 6.292969 C 11.808594 6.292969 11.867188 6.230469 11.867188 6.15625 L 11.867188 0.300781 C 11.867188 0.222656 11.808594 0.164062 11.734375 0.164062 Z M 11.734375 0.164062 "/><path style=" stroke:none;fill-rule:nonzero;fill:#d05b71;fill-opacity:1;" d="M 11.867188 1.636719 L 5.824219 1.636719 L 5.824219 0.300781 C 5.824219 0.226562 5.886719 0.164062 5.960938 0.164062 L 11.734375 0.164062 C 11.808594 0.164062 11.867188 0.226562 11.867188 0.300781 Z M 11.867188 1.636719 "/><path style=" stroke:none;fill-rule:nonzero;fill:#d6dce1;fill-opacity:1;" d="M 6.902344 2.320312 L 7.925781 2.320312 L 7.925781 2.992188 L 6.902344 2.992188 Z M 6.902344 2.320312 "/><path style=" stroke:none;fill-rule:nonzero;fill:#d6dce1;fill-opacity:1;" d="M 8.335938 2.320312 L 9.359375 2.320312 L 9.359375 2.992188 L 8.335938 2.992188 Z M 8.335938 2.320312 "/><path style=" stroke:none;fill-rule:nonzero;fill:#d6dce1;fill-opacity:1;" d="M 9.769531 2.320312 L 10.792969 2.320312 L 10.792969 2.992188 L 9.769531 2.992188 Z M 9.769531 2.320312 "/><path style=" stroke:none;fill-rule:nonzero;fill:#d6dce1;fill-opacity:1;" d="M 6.902344 3.574219 L 7.925781 3.574219 L 7.925781 4.246094 L 6.902344 4.246094 Z M 6.902344 3.574219 "/><path style=" stroke:none;fill-rule:nonzero;fill:#d6dce1;fill-opacity:1;" d="M 8.335938 3.574219 L 9.359375 3.574219 L 9.359375 4.246094 L 8.335938 4.246094 Z M 8.335938 3.574219 "/><path style=" stroke:none;fill-rule:nonzero;fill:#d6dce1;fill-opacity:1;" d="M 9.769531 3.574219 L 10.792969 3.574219 L 10.792969 4.246094 L 9.769531 4.246094 Z M 9.769531 3.574219 "/><path style=" stroke:none;fill-rule:nonzero;fill:#d6dce1;fill-opacity:1;" d="M 6.902344 4.828125 L 7.925781 4.828125 L 7.925781 5.5 L 6.902344 5.5 Z M 6.902344 4.828125 "/><path style=" stroke:none;fill-rule:nonzero;fill:#d6dce1;fill-opacity:1;" d="M 8.335938 4.828125 L 9.359375 4.828125 L 9.359375 5.5 L 8.335938 5.5 Z M 8.335938 4.828125 "/><path style=" stroke:none;fill-rule:nonzero;fill:#d6dce1;fill-opacity:1;" d="M 9.769531 4.828125 L 10.792969 4.828125 L 10.792969 5.5 L 9.769531 5.5 Z M 9.769531 4.828125 "/><path style=" stroke:none;fill-rule:nonzero;fill:#ffffff;fill-opacity:1;" d="M 6.898438 0.9375 C 6.898438 1.066406 6.832031 1.132812 6.707031 1.132812 C 6.578125 1.132812 6.511719 1.066406 6.511719 0.9375 C 6.511719 0.808594 6.578125 0.742188 6.707031 0.742188 C 6.832031 0.742188 6.898438 0.808594 6.898438 0.9375 Z M 6.898438 0.9375 "/><path style=" stroke:none;fill-rule:nonzero;fill:#ffffff;fill-opacity:1;" d="M 7.96875 0.9375 C 7.96875 1.066406 7.90625 1.132812 7.777344 1.132812 C 7.648438 1.132812 7.585938 1.066406 7.585938 0.9375 C 7.585938 0.808594 7.648438 0.742188 7.777344 0.742188 C 7.90625 0.742188 7.96875 0.808594 7.96875 0.9375 Z M 7.96875 0.9375 "/><path style=" stroke:none;fill-rule:nonzero;fill:#ffffff;fill-opacity:1;" d="M 9.039062 0.9375 C 9.039062 1.066406 8.976562 1.132812 8.847656 1.132812 C 8.71875 1.132812 8.65625 1.066406 8.65625 0.9375 C 8.65625 0.808594 8.71875 0.742188 8.847656 0.742188 C 8.976562 0.742188 9.039062 0.808594 9.039062 0.9375 Z M 9.039062 0.9375 "/><path style=" stroke:none;fill-rule:nonzero;fill:#ffffff;fill-opacity:1;" d="M 10.109375 0.9375 C 10.109375 1.066406 10.046875 1.132812 9.917969 1.132812 C 9.789062 1.132812 9.726562 1.066406 9.726562 0.9375 C 9.726562 0.808594 9.789062 0.742188 9.917969 0.742188 C 10.046875 0.742188 10.109375 0.808594 10.109375 0.9375 Z M 10.109375 0.9375 "/><path style=" stroke:none;fill-rule:nonzero;fill:#ffffff;fill-opacity:1;" d="M 11.179688 0.9375 C 11.179688 1.066406 11.117188 1.132812 10.988281 1.132812 C 10.859375 1.132812 10.796875 1.066406 10.796875 0.9375 C 10.796875 0.808594 10.859375 0.742188 10.988281 0.742188 C 11.117188 0.742188 11.179688 0.808594 11.179688 0.9375 Z M 11.179688 0.9375 "/><path style=" stroke:none;fill-rule:nonzero;fill:#252626;fill-opacity:1;" d="M 6.714844 0.949219 C 6.660156 0.949219 6.617188 0.902344 6.617188 0.847656 L 6.617188 0.0976562 C 6.617188 0.0429688 6.660156 -0.00390625 6.714844 -0.00390625 C 6.769531 -0.00390625 6.816406 0.0429688 6.816406 0.0976562 L 6.816406 0.847656 C 6.816406 0.902344 6.769531 0.949219 6.714844 0.949219 Z M 6.714844 0.949219 "/><path style=" stroke:none;fill-rule:nonzero;fill:#252626;fill-opacity:1;" d="M 7.773438 0.949219 C 7.714844 0.949219 7.671875 0.902344 7.671875 0.847656 L 7.671875 0.0976562 C 7.671875 0.0429688 7.714844 -0.00390625 7.773438 -0.00390625 C 7.828125 -0.00390625 7.871094 0.0429688 7.871094 0.0976562 L 7.871094 0.847656 C 7.871094 0.902344 7.824219 0.949219 7.773438 0.949219 Z M 7.773438 0.949219 "/><path style=" stroke:none;fill-rule:nonzero;fill:#252626;fill-opacity:1;" d="M 8.847656 0.949219 C 8.792969 0.949219 8.746094 0.902344 8.746094 0.847656 L 8.746094 0.0976562 C 8.746094 0.0429688 8.792969 -0.00390625 8.847656 -0.00390625 C 8.902344 -0.00390625 8.945312 0.0429688 8.945312 0.0976562 L 8.945312 0.847656 C 8.945312 0.902344 8.902344 0.949219 8.847656 0.949219 Z M 8.847656 0.949219 "/><path style=" stroke:none;fill-rule:nonzero;fill:#252626;fill-opacity:1;" d="M 9.914062 0.949219 C 9.859375 0.949219 9.816406 0.902344 9.816406 0.847656 L 9.816406 0.0976562 C 9.816406 0.0429688 9.859375 -0.00390625 9.914062 -0.00390625 C 9.972656 -0.00390625 10.015625 0.0429688 10.015625 0.0976562 L 10.015625 0.847656 C 10.015625 0.902344 9.972656 0.949219 9.914062 0.949219 Z M 9.914062 0.949219 "/><path style=" stroke:none;fill-rule:nonzero;fill:#252626;fill-opacity:1;" d="M 10.992188 0.949219 C 10.9375 0.949219 10.894531 0.902344 10.894531 0.847656 L 10.894531 0.0976562 C 10.894531 0.0429688 10.9375 -0.00390625 10.992188 -0.00390625 C 11.046875 -0.00390625 11.09375 0.0429688 11.09375 0.0976562 L 11.09375 0.847656 C 11.09375 0.902344 11.046875 0.949219 10.992188 0.949219 Z M 10.992188 0.949219 "/><path style=" stroke:none;fill-rule:nonzero;fill:#d6dce1;fill-opacity:1;" d="M 5.03125 2.890625 C 5.03125 3.085938 4.960938 3.253906 4.824219 3.394531 C 4.6875 3.53125 4.523438 3.601562 4.332031 3.601562 C 4.136719 3.601562 3.972656 3.53125 3.835938 3.394531 C 3.699219 3.253906 3.628906 3.085938 3.628906 2.890625 C 3.628906 2.695312 3.699219 2.527344 3.835938 2.390625 C 3.972656 2.25 4.136719 2.179688 4.332031 2.179688 C 4.523438 2.179688 4.6875 2.25 4.824219 2.390625 C 4.960938 2.527344 5.03125 2.695312 5.03125 2.890625 Z M 5.03125 2.890625 "/><path style=" stroke:none;fill-rule:nonzero;fill:#d05b71;fill-opacity:1;" d="M 13.386719 25.984375 C 13.386719 26.179688 13.320312 26.347656 13.183594 26.488281 C 13.046875 26.625 12.882812 26.695312 12.6875 26.695312 C 12.496094 26.695312 12.328125 26.625 12.191406 26.488281 C 12.054688 26.347656 11.988281 26.179688 11.988281 25.984375 C 11.988281 25.789062 12.054688 25.621094 12.191406 25.484375 C 12.328125 25.34375 12.496094 25.273438 12.6875 25.273438 C 12.882812 25.273438 13.046875 25.34375 13.183594 25.484375 C 13.320312 25.621094 13.386719 25.789062 13.386719 25.984375 Z M 13.386719 25.984375 "/><path style=" stroke:none;fill-rule:nonzero;fill:#7761e1;fill-opacity:1;" d="M 10.054688 25.503906 C 10.054688 25.601562 10.023438 25.683594 9.953125 25.753906 C 9.886719 25.820312 9.800781 25.855469 9.707031 25.855469 C 9.609375 25.855469 9.527344 25.820312 9.457031 25.753906 C 9.390625 25.683594 9.355469 25.601562 9.355469 25.503906 C 9.355469 25.402344 9.390625 25.320312 9.457031 25.25 C 9.527344 25.183594 9.609375 25.148438 9.707031 25.148438 C 9.800781 25.148438 9.886719 25.183594 9.953125 25.25 C 10.023438 25.320312 10.054688 25.402344 10.054688 25.503906 Z M 10.054688 25.503906 "/></g></svg>