<svg xmlns="http://www.w3.org/2000/svg" xmlns:xlink="http://www.w3.org/1999/xlink" width="40" zoomAndPan="magnify" viewBox="0 0 30 30.000001" height="40" preserveAspectRatio="xMidYMid meet" version="1.2"><defs><clipPath id="a517f92f7c"><path d="M 0.484375 0 L 29.515625 0 L 29.515625 29.03125 L 0.484375 29.03125 Z M 0.484375 0 "/></clipPath></defs><g id="49cf275823"><g clip-rule="nonzero" clip-path="url(#a517f92f7c)"><path style=" stroke:none;fill-rule:nonzero;fill:#ec407a;fill-opacity:1;" d="M 29.515625 14.515625 C 29.515625 15.46875 29.421875 16.414062 29.238281 17.347656 C 29.050781 18.28125 28.777344 19.191406 28.410156 20.070312 C 28.046875 20.953125 27.597656 21.789062 27.070312 22.582031 C 26.539062 23.375 25.9375 24.105469 25.265625 24.78125 C 24.589844 25.453125 23.855469 26.054688 23.066406 26.585938 C 22.273438 27.117188 21.4375 27.5625 20.554688 27.925781 C 19.675781 28.292969 18.765625 28.566406 17.832031 28.753906 C 16.898438 28.9375 15.953125 29.03125 15 29.03125 C 14.046875 29.03125 13.101562 28.9375 12.167969 28.753906 C 11.234375 28.566406 10.324219 28.292969 9.445312 27.925781 C 8.5625 27.5625 7.726562 27.117188 6.933594 26.585938 C 6.144531 26.054688 5.410156 25.453125 4.734375 24.78125 C 4.0625 24.105469 3.460938 23.375 2.929688 22.582031 C 2.402344 21.789062 1.953125 20.953125 1.589844 20.070312 C 1.222656 19.191406 0.949219 18.28125 0.761719 17.347656 C 0.578125 16.414062 0.484375 15.46875 0.484375 14.515625 C 0.484375 13.5625 0.578125 12.617188 0.761719 11.683594 C 0.949219 10.75 1.222656 9.839844 1.589844 8.960938 C 1.953125 8.082031 2.402344 7.242188 2.929688 6.453125 C 3.460938 5.660156 4.0625 4.925781 4.734375 4.25 C 5.410156 3.578125 6.144531 2.976562 6.933594 2.445312 C 7.726562 1.917969 8.5625 1.46875 9.445312 1.105469 C 10.324219 0.738281 11.234375 0.464844 12.167969 0.277344 C 13.101562 0.09375 14.046875 0 15 0 C 15.953125 0 16.898438 0.09375 17.832031 0.277344 C 18.765625 0.464844 19.675781 0.738281 20.554688 1.105469 C 21.4375 1.46875 22.273438 1.917969 23.066406 2.445312 C 23.855469 2.976562 24.589844 3.578125 25.265625 4.25 C 25.9375 4.925781 26.539062 5.660156 27.070312 6.453125 C 27.597656 7.242188 28.046875 8.082031 28.410156 8.960938 C 28.777344 9.839844 29.050781 10.75 29.238281 11.683594 C 29.421875 12.617188 29.515625 13.5625 29.515625 14.515625 Z M 29.515625 14.515625 "/></g><path style=" stroke:none;fill-rule:nonzero;fill:#fffffe;fill-opacity:1;" d="M 10.433594 16.839844 L 9.121094 16.839844 C 9.023438 16.839844 8.945312 16.761719 8.945312 16.671875 L 8.945312 14.398438 C 8.945312 14.300781 9.023438 14.222656 9.121094 14.222656 L 10.433594 14.222656 C 10.53125 14.222656 10.609375 14.300781 10.609375 14.398438 L 10.609375 16.671875 C 10.605469 16.761719 10.53125 16.839844 10.433594 16.839844 Z M 9.289062 16.496094 L 10.257812 16.496094 L 10.257812 14.566406 L 9.289062 14.566406 Z M 9.289062 16.496094 "/><path style=" stroke:none;fill-rule:nonzero;fill:#fffffe;fill-opacity:1;" d="M 9.121094 16.839844 L 8.324219 16.839844 C 7.792969 16.839844 7.355469 16.40625 7.355469 15.871094 L 7.355469 15.183594 C 7.355469 14.652344 7.792969 14.214844 8.324219 14.214844 L 9.121094 14.214844 C 9.214844 14.214844 9.296875 14.296875 9.296875 14.390625 C 9.296875 14.488281 9.214844 14.566406 9.121094 14.566406 L 8.324219 14.566406 C 7.980469 14.566406 7.703125 14.84375 7.703125 15.191406 L 7.703125 15.878906 C 7.703125 16.222656 7.980469 16.5 8.324219 16.5 L 9.121094 16.5 C 9.214844 16.5 9.296875 16.582031 9.296875 16.671875 C 9.289062 16.761719 9.210938 16.839844 9.121094 16.839844 Z M 9.121094 16.839844 "/><path style=" stroke:none;fill-rule:nonzero;fill:#fffffe;fill-opacity:1;" d="M 8.570312 15.070312 L 7.582031 15.070312 C 7.488281 15.070312 7.40625 14.992188 7.40625 14.902344 C 7.40625 14.8125 7.488281 14.726562 7.582031 14.726562 L 8.570312 14.726562 C 8.667969 14.726562 8.746094 14.804688 8.746094 14.902344 C 8.738281 14.992188 8.660156 15.070312 8.570312 15.070312 Z M 8.570312 15.070312 "/><path style=" stroke:none;fill-rule:nonzero;fill:#fffffe;fill-opacity:1;" d="M 8.207031 15.703125 L 7.519531 15.703125 C 7.425781 15.703125 7.34375 15.621094 7.34375 15.53125 C 7.34375 15.441406 7.425781 15.359375 7.519531 15.359375 L 8.207031 15.359375 C 8.304688 15.359375 8.378906 15.441406 8.378906 15.53125 C 8.378906 15.621094 8.304688 15.703125 8.207031 15.703125 Z M 8.207031 15.703125 "/><path style=" stroke:none;fill-rule:nonzero;fill:#fffffe;fill-opacity:1;" d="M 8.570312 16.335938 L 7.582031 16.335938 C 7.488281 16.335938 7.40625 16.257812 7.40625 16.167969 C 7.40625 16.074219 7.488281 15.996094 7.582031 15.996094 L 8.570312 15.996094 C 8.667969 15.996094 8.746094 16.074219 8.746094 16.167969 C 8.738281 16.257812 8.660156 16.335938 8.570312 16.335938 Z M 8.570312 16.335938 "/><path style=" stroke:none;fill-rule:nonzero;fill:#fffffe;fill-opacity:1;" d="M 14.167969 19.03125 C 14.136719 19.03125 14.105469 19.023438 14.082031 19.007812 L 10.351562 16.816406 C 10.269531 16.765625 10.242188 16.664062 10.289062 16.582031 C 10.339844 16.496094 10.441406 16.472656 10.527344 16.519531 L 14.257812 18.707031 C 14.335938 18.757812 14.363281 18.859375 14.320312 18.945312 C 14.285156 19 14.222656 19.03125 14.167969 19.03125 Z M 10.433594 14.5625 C 10.371094 14.5625 10.316406 14.53125 10.289062 14.476562 C 10.238281 14.398438 10.265625 14.289062 10.351562 14.238281 L 14.082031 12.050781 C 14.160156 12 14.269531 12.027344 14.320312 12.113281 C 14.371094 12.191406 14.34375 12.300781 14.257812 12.351562 L 10.519531 14.539062 C 10.492188 14.554688 10.464844 14.5625 10.433594 14.5625 Z M 10.433594 14.5625 "/><path style=" stroke:none;fill-rule:nonzero;fill:#fffffe;fill-opacity:1;" d="M 12.8125 18.234375 C 12.714844 18.234375 12.636719 18.15625 12.636719 18.066406 L 12.636719 12.996094 C 12.636719 12.898438 12.714844 12.820312 12.8125 12.820312 C 12.90625 12.820312 12.988281 12.898438 12.988281 12.996094 L 12.988281 18.066406 C 12.988281 18.164062 12.90625 18.234375 12.8125 18.234375 Z M 12.8125 18.234375 "/><path style=" stroke:none;fill-rule:nonzero;fill:#fffffe;fill-opacity:1;" d="M 14.953125 19.03125 L 14.167969 19.03125 C 14.070312 19.03125 13.992188 18.949219 13.992188 18.859375 L 13.992188 12.203125 C 13.992188 12.105469 14.070312 12.027344 14.167969 12.027344 L 14.953125 12.027344 C 15.148438 12.027344 15.300781 12.179688 15.300781 12.371094 L 15.300781 18.691406 C 15.292969 18.875 15.140625 19.03125 14.953125 19.03125 Z M 14.335938 18.683594 L 14.949219 18.683594 L 14.949219 12.367188 L 14.335938 12.367188 Z M 14.335938 18.683594 "/><path style=" stroke:none;fill-rule:nonzero;fill:#fffffe;fill-opacity:1;" d="M 9.203125 19.890625 C 9.058594 19.890625 8.945312 19.773438 8.945312 19.628906 L 8.945312 16.671875 C 8.945312 16.574219 9.023438 16.5 9.121094 16.5 C 9.214844 16.5 9.296875 16.582031 9.296875 16.671875 L 9.296875 19.546875 C 9.839844 19.5 10.265625 19.046875 10.265625 18.492188 L 10.265625 16.671875 C 10.265625 16.574219 10.34375 16.5 10.441406 16.5 C 10.539062 16.5 10.617188 16.582031 10.617188 16.671875 L 10.617188 18.492188 C 10.605469 19.261719 9.976562 19.890625 9.203125 19.890625 Z M 9.203125 19.890625 "/><path style=" stroke:none;fill-rule:nonzero;fill:#fffffe;fill-opacity:1;" d="M 10.433594 18.207031 C 10.339844 18.207031 10.257812 18.128906 10.257812 18.039062 C 10.257812 17.945312 10.339844 17.867188 10.433594 17.867188 C 10.828125 17.867188 11.15625 17.589844 11.222656 17.203125 C 11.242188 17.109375 11.332031 17.046875 11.421875 17.0625 C 11.511719 17.078125 11.582031 17.167969 11.5625 17.261719 C 11.46875 17.8125 10.992188 18.207031 10.433594 18.207031 Z M 10.433594 18.207031 "/><path style=" stroke:none;fill-rule:nonzero;fill:#fffffe;fill-opacity:1;" d="M 15.125 17.074219 C 15.058594 17.074219 14.996094 17.035156 14.964844 16.964844 C 14.933594 16.878906 14.972656 16.777344 15.058594 16.738281 L 15.574219 16.523438 C 15.789062 16.433594 15.851562 16.382812 15.851562 16.296875 L 15.851562 14.75 C 15.851562 14.664062 15.789062 14.613281 15.574219 14.523438 L 15.058594 14.304688 C 14.964844 14.273438 14.925781 14.171875 14.964844 14.078125 C 15.003906 13.988281 15.101562 13.949219 15.191406 13.988281 L 15.707031 14.203125 C 15.894531 14.285156 16.203125 14.410156 16.203125 14.75 L 16.203125 16.296875 C 16.203125 16.636719 15.894531 16.765625 15.707031 16.839844 L 15.191406 17.054688 C 15.171875 17.074219 15.148438 17.074219 15.125 17.074219 Z M 15.125 17.074219 "/><path style=" stroke:none;fill-rule:nonzero;fill:#fffffe;fill-opacity:1;" d="M 17.382812 14.992188 C 17.167969 14.992188 16.960938 14.894531 16.816406 14.71875 L 16.167969 13.960938 C 16.140625 13.925781 16.128906 13.886719 16.128906 13.847656 L 16.128906 10.09375 C 16.128906 9.601562 16.53125 9.191406 17.03125 9.191406 L 21.769531 9.191406 C 22.265625 9.191406 22.671875 9.59375 22.671875 10.09375 L 22.671875 13.121094 C 22.671875 13.613281 22.269531 14.023438 21.769531 14.023438 L 18.550781 14.023438 L 17.949219 14.714844 C 17.800781 14.890625 17.597656 14.992188 17.382812 14.992188 Z M 16.46875 13.777344 L 17.074219 14.492188 C 17.160156 14.589844 17.269531 14.648438 17.382812 14.648438 C 17.496094 14.648438 17.601562 14.59375 17.6875 14.492188 L 18.335938 13.734375 C 18.367188 13.695312 18.414062 13.671875 18.464844 13.671875 L 21.765625 13.671875 C 22.070312 13.671875 22.320312 13.421875 22.320312 13.117188 L 22.320312 10.085938 C 22.320312 9.78125 22.070312 9.53125 21.765625 9.53125 L 17.019531 9.53125 C 16.710938 9.53125 16.464844 9.78125 16.464844 10.085938 Z M 16.46875 13.777344 "/><path style=" stroke:none;fill-rule:nonzero;fill:#fffffe;fill-opacity:1;" d="M 17.445312 13.042969 C 17.347656 13.042969 17.273438 12.960938 17.273438 12.867188 L 17.273438 10.34375 C 17.273438 10.246094 17.351562 10.167969 17.445312 10.167969 C 17.535156 10.167969 17.613281 10.246094 17.613281 10.34375 L 17.613281 12.867188 C 17.621094 12.960938 17.539062 13.042969 17.445312 13.042969 Z M 17.445312 13.042969 "/><path style=" stroke:none;fill-rule:nonzero;fill:#fffffe;fill-opacity:1;" d="M 18.335938 11.949219 L 17.445312 11.949219 C 17.347656 11.949219 17.273438 11.867188 17.273438 11.773438 C 17.273438 11.675781 17.351562 11.597656 17.445312 11.597656 L 18.335938 11.597656 C 18.632812 11.597656 18.878906 11.351562 18.878906 11.050781 C 18.878906 10.75 18.632812 10.507812 18.335938 10.507812 L 17.445312 10.507812 C 17.347656 10.507812 17.273438 10.429688 17.273438 10.332031 C 17.273438 10.234375 17.351562 10.15625 17.445312 10.15625 L 18.335938 10.15625 C 18.828125 10.15625 19.222656 10.558594 19.222656 11.046875 C 19.230469 11.550781 18.828125 11.949219 18.335938 11.949219 Z M 18.335938 11.949219 "/><path style=" stroke:none;fill-rule:nonzero;fill:#fffffe;fill-opacity:1;" d="M 19.734375 13.042969 C 19.636719 13.042969 19.566406 12.960938 19.566406 12.867188 L 19.566406 10.34375 C 19.566406 10.246094 19.644531 10.167969 19.734375 10.167969 C 19.824219 10.167969 19.90625 10.246094 19.90625 10.34375 L 19.90625 12.867188 C 19.910156 12.960938 19.832031 13.042969 19.734375 13.042969 Z M 19.734375 13.042969 "/><path style=" stroke:none;fill-rule:nonzero;fill:#fffffe;fill-opacity:1;" d="M 20.625 11.949219 L 19.734375 11.949219 C 19.636719 11.949219 19.566406 11.867188 19.566406 11.773438 C 19.566406 11.675781 19.644531 11.597656 19.734375 11.597656 L 20.625 11.597656 C 20.925781 11.597656 21.167969 11.351562 21.167969 11.050781 C 21.167969 10.75 20.925781 10.507812 20.625 10.507812 L 19.734375 10.507812 C 19.636719 10.507812 19.566406 10.429688 19.566406 10.332031 C 19.566406 10.234375 19.644531 10.15625 19.734375 10.15625 L 20.625 10.15625 C 21.117188 10.15625 21.515625 10.558594 21.515625 11.046875 C 21.519531 11.550781 21.117188 11.949219 20.625 11.949219 Z M 20.625 11.949219 "/><path style=" stroke:none;fill-rule:nonzero;fill:#fffffe;fill-opacity:1;" d="M 20.914062 13.042969 C 20.835938 13.042969 20.765625 12.992188 20.75 12.910156 L 20.464844 11.824219 C 20.445312 11.730469 20.496094 11.636719 20.589844 11.613281 C 20.683594 11.589844 20.777344 11.648438 20.800781 11.738281 L 21.085938 12.828125 C 21.105469 12.917969 21.054688 13.011719 20.960938 13.035156 C 20.941406 13.035156 20.925781 13.042969 20.914062 13.042969 Z M 20.914062 13.042969 "/></g></svg>