<svg xmlns="http://www.w3.org/2000/svg" xmlns:xlink="http://www.w3.org/1999/xlink" width="40" zoomAndPan="magnify" viewBox="0 0 30 30.000001" height="40" preserveAspectRatio="xMidYMid meet" version="1.2"><defs><clipPath id="d2a64f9588"><path d="M 0.554688 25 L 26 25 L 26 28 L 0.554688 28 Z M 0.554688 25 "/></clipPath><clipPath id="6f0e1494fc"><path d="M 0.554688 27 L 26 27 L 26 29.03125 L 0.554688 29.03125 Z M 0.554688 27 "/></clipPath><clipPath id="ec8a80f792"><path d="M 0.554688 12 L 8 12 L 8 25 L 0.554688 25 Z M 0.554688 12 "/></clipPath><clipPath id="b7c1e3c90d"><path d="M 19 1 L 29.515625 1 L 29.515625 15 L 19 15 Z M 19 1 "/></clipPath></defs><g id="60dc9b9be8"><path style=" stroke:none;fill-rule:nonzero;fill:#27254c;fill-opacity:1;" d="M 14.476562 12.285156 C 14.167969 11.800781 13.863281 11.222656 13.929688 10.613281 C 13.960938 10.300781 14.089844 10.011719 14.214844 9.730469 C 14.410156 9.300781 14.613281 8.808594 14.441406 8.355469 C 14.367188 8.15625 14.21875 7.984375 14.078125 7.820312 C 13.492188 7.140625 13.101562 6.394531 12.894531 5.558594 C 12.890625 5.539062 12.898438 5.523438 12.917969 5.519531 C 12.933594 5.515625 12.949219 5.527344 12.953125 5.542969 C 13.148438 6.332031 13.527344 7.074219 14.050781 7.695312 C 14.21875 7.894531 14.40625 8.089844 14.5 8.335938 C 14.621094 8.652344 14.582031 9.023438 14.378906 9.511719 C 14.230469 9.871094 14.03125 10.230469 13.988281 10.617188 C 13.925781 11.210938 14.226562 11.777344 14.527344 12.253906 C 14.535156 12.265625 14.53125 12.285156 14.519531 12.296875 C 14.503906 12.304688 14.484375 12.300781 14.476562 12.285156 Z M 14.476562 12.285156 "/><path style=" stroke:none;fill-rule:nonzero;fill:#f8e77f;fill-opacity:1;" d="M 18.925781 24.242188 C 18.800781 24.304688 18.667969 24.347656 18.535156 24.386719 C 17.632812 24.636719 16 24.523438 14.921875 24.574219 L 14.921875 24.570312 C 15.136719 24.554688 15.265625 24.078125 15.308594 23.867188 C 15.320312 23.820312 15.371094 23.511719 15.378906 23.191406 C 15.398438 22.796875 15.351562 22.179688 15.175781 21.828125 C 15.109375 21.695312 15.03125 21.617188 14.945312 21.613281 C 14.941406 21.613281 14.9375 21.613281 14.933594 21.613281 C 15.359375 21.511719 15.828125 21.191406 16.238281 21.042969 C 16.3125 21.015625 16.007812 20.238281 15.980469 20.164062 C 15.609375 19.199219 14.792969 17.308594 14.46875 16.695312 C 13.960938 15.238281 14.257812 13.382812 14.996094 12.082031 C 16.703125 12.292969 17.523438 14.03125 18.085938 15.550781 C 18.582031 16.902344 19.007812 18.28125 19.367188 19.679688 C 19.535156 20.332031 19.667969 21 19.84375 21.644531 C 20.125 22.6875 19.917969 23.785156 18.925781 24.242188 Z M 18.925781 24.242188 "/><path style=" stroke:none;fill-rule:nonzero;fill:#fccf36;fill-opacity:1;" d="M 18.535156 24.386719 C 17.699219 24.617188 16.234375 24.535156 15.175781 24.5625 C 15.140625 24.339844 15.261719 24.132812 15.308594 23.867188 C 15.308594 23.859375 15.3125 23.851562 15.3125 23.84375 C 15.425781 23.28125 15.421875 22.320312 15.175781 21.828125 C 15.292969 21.671875 14.675781 22.523438 16.824219 19.546875 C 16.722656 20.804688 16.5 22.191406 16.90625 23.414062 C 17.058594 23.882812 17.304688 24.210938 17.929688 24.339844 C 18.128906 24.378906 18.332031 24.386719 18.535156 24.386719 Z M 18.535156 24.386719 "/><path style=" stroke:none;fill-rule:nonzero;fill:#fccf36;fill-opacity:1;" d="M 16.28125 19.964844 C 16.238281 20.109375 16.15625 20.238281 16.046875 20.34375 C 15.625 19.199219 14.746094 17.21875 14.46875 16.695312 C 14.425781 16.578125 14.390625 16.457031 14.363281 16.335938 L 15.398438 15.738281 C 15.425781 16.804688 15.742188 17.84375 16.113281 18.84375 C 16.246094 19.207031 16.390625 19.59375 16.28125 19.964844 Z M 16.28125 19.964844 "/><path style=" stroke:none;fill-rule:nonzero;fill:#18142e;fill-opacity:1;" d="M 9.035156 12.503906 C 8.855469 12.199219 8.703125 11.882812 8.578125 11.554688 C 8.476562 11.28125 8.394531 10.992188 8.410156 10.703125 C 8.421875 10.429688 8.523438 10.164062 8.667969 9.933594 C 8.730469 9.832031 8.804688 9.734375 8.910156 9.6875 C 9.101562 9.605469 9.316406 9.710938 9.472656 9.84375 C 9.761719 10.089844 9.960938 10.433594 10.039062 10.800781 C 10.117188 11.171875 10.074219 11.5625 9.929688 11.914062 C 9.835938 12.136719 9.691406 12.351562 9.480469 12.46875 C 9.199219 12.625 8.820312 12.582031 8.585938 12.359375 "/><path style=" stroke:none;fill-rule:nonzero;fill:#18142e;fill-opacity:1;" d="M 7.753906 8.449219 C 7.804688 8.71875 7.84375 8.941406 7.902344 9.121094 C 7.957031 9.296875 8.046875 9.476562 8.207031 9.574219 C 8.730469 9.890625 8.835938 8.613281 8.164062 8.292969 C 8.113281 8.269531 8.058594 8.25 8.003906 8.253906 C 7.945312 8.257812 7.890625 8.285156 7.863281 8.332031 "/><path style=" stroke:none;fill-rule:nonzero;fill:#27254c;fill-opacity:1;" d="M 12.640625 4.238281 C 13.332031 5.058594 12.988281 6.304688 13.476562 7.226562 C 13.667969 7.585938 13.984375 7.902344 14.015625 8.308594 C 14.054688 8.835938 13.605469 9.253906 13.40625 9.742188 C 13.121094 10.449219 13.386719 11.277344 13.855469 11.875 C 14.078125 12.15625 14.359375 12.46875 14.277344 12.816406 C 14.195312 13.148438 13.8125 13.3125 13.46875 13.320312 C 12.914062 13.335938 12.378906 13.078125 11.972656 12.699219 C 11.570312 12.324219 11.289062 11.835938 11.066406 11.328125 C 10.75 10.617188 10.546875 9.855469 10.464844 9.082031 "/><path style=" stroke:none;fill-rule:nonzero;fill:#ffc2a5;fill-opacity:1;" d="M 13.597656 13.082031 C 13.511719 14.226562 12.417969 15.152344 10.769531 14.96875 C 10.402344 14.929688 10.035156 14.835938 9.710938 14.660156 C 9.539062 14.566406 9.398438 14.457031 9.21875 14.386719 C 9.03125 14.3125 8.855469 14.1875 8.6875 14.070312 C 8.351562 13.839844 8.046875 13.5625 7.78125 13.25 C 7.683594 13.132812 7.59375 13.015625 7.53125 12.878906 C 7.472656 12.753906 7.445312 12.589844 7.539062 12.484375 C 7.578125 12.445312 7.632812 12.417969 7.683594 12.394531 C 8.074219 12.230469 8.476562 12.089844 8.882812 11.980469 C 9.078125 11.929688 9.253906 11.875 9.320312 11.675781 C 9.324219 11.671875 9.324219 11.671875 9.324219 11.671875 C 9.332031 11.621094 9.335938 11.566406 9.339844 11.503906 C 9.355469 11.378906 9.367188 11.25 9.375 11.125 C 9.402344 10.675781 9.207031 10.238281 9.097656 9.804688 L 9.039062 9.582031 C 9.386719 9.050781 9.8125 8.820312 10.515625 8.816406 C 10.664062 8.816406 10.996094 8.78125 11.085938 8.898438 C 11.167969 9.003906 11.175781 9.15625 11.210938 9.289062 C 11.242188 9.390625 11.59375 10.6875 11.621094 10.792969 C 11.71875 11.148438 11.808594 11.480469 12.085938 11.734375 C 12.351562 11.980469 12.6875 12.144531 13.019531 12.285156 C 13.164062 12.34375 13.3125 12.40625 13.429688 12.507812 C 13.617188 12.667969 13.613281 12.855469 13.597656 13.082031 Z M 13.597656 13.082031 "/><path style=" stroke:none;fill-rule:nonzero;fill:#f8e77f;fill-opacity:1;" d="M 15.53125 17.144531 C 15.035156 20.097656 14.808594 22.933594 15.339844 25.867188 L 15.386719 25.960938 L 7.09375 25.960938 C 7.085938 25.960938 7.117188 25.871094 7.105469 25.871094 C 7.109375 25.085938 7.066406 24.300781 6.976562 23.519531 C 6.828125 22.253906 6.554688 21.003906 6.160156 19.789062 C 5.984375 19.253906 5.777344 18.703125 5.675781 18.144531 C 5.507812 17.21875 5.597656 16.304688 5.785156 15.382812 C 5.828125 15.164062 5.679688 12.578125 5.570312 12.578125 C 6.25 12.425781 7.414062 12.203125 8.082031 12.003906 C 8.167969 12.566406 8.546875 13.070312 9.042969 13.351562 C 9.875 13.828125 11.007812 13.726562 11.671875 13.289062 C 12.089844 13.019531 12.496094 12.5 12.753906 12.082031 C 12.820312 11.980469 12.847656 11.957031 12.972656 11.960938 C 13.535156 11.984375 14.457031 12 15.011719 12.078125 C 14.972656 12.601562 14.636719 13.195312 14.820312 13.6875 C 15.089844 14.414062 15.605469 15.085938 15.648438 15.878906 C 15.671875 16.304688 15.601562 16.726562 15.53125 17.144531 Z M 15.53125 17.144531 "/><path style=" stroke:none;fill-rule:nonzero;fill:#fccf36;fill-opacity:1;" d="M 15.386719 25.960938 L 7.097656 25.960938 C 7.085938 25.960938 7.117188 25.871094 7.105469 25.871094 C 7.109375 25.085938 7.070312 24.300781 6.976562 23.519531 C 7.460938 24.179688 8.164062 24.671875 8.953125 24.890625 C 9.4375 25.023438 9.941406 25.058594 10.445312 25.082031 C 11.144531 25.109375 11.847656 25.113281 12.550781 25.117188 C 13.582031 25.125 14.222656 25.101562 15.160156 24.644531 C 15.207031 25.050781 15.265625 25.457031 15.339844 25.867188 Z M 15.386719 25.960938 "/><path style=" stroke:none;fill-rule:nonzero;fill:#fccf36;fill-opacity:1;" d="M 9.121094 13.441406 C 8.957031 13.347656 8.550781 13.089844 8.359375 12.742188 C 8.347656 12.722656 8.355469 12.703125 8.375 12.691406 C 8.390625 12.679688 8.414062 12.6875 8.425781 12.707031 C 8.605469 13.039062 9 13.285156 9.160156 13.378906 C 9.484375 13.5625 9.902344 13.648438 10.410156 13.628906 C 10.882812 13.609375 11.3125 13.480469 11.652344 13.261719 C 12.097656 12.972656 12.5 12.507812 12.757812 11.988281 C 12.765625 11.96875 12.789062 11.960938 12.808594 11.96875 C 12.824219 11.980469 12.832031 12 12.824219 12.019531 C 12.5625 12.550781 12.148438 13.027344 11.695312 13.320312 C 11.339844 13.550781 10.898438 13.683594 10.414062 13.703125 C 9.972656 13.71875 9.503906 13.664062 9.121094 13.441406 Z M 9.121094 13.441406 "/><path style=" stroke:none;fill-rule:nonzero;fill:#e0916e;fill-opacity:1;" d="M 11.507812 10.375 C 10.992188 10.957031 10.292969 11.363281 9.570312 11.644531 C 9.480469 11.679688 9.390625 11.710938 9.300781 11.742188 C 9.300781 11.71875 9.304688 11.695312 9.308594 11.675781 C 9.308594 11.671875 9.308594 11.671875 9.308594 11.671875 C 9.316406 11.617188 9.320312 11.5625 9.328125 11.503906 C 9.34375 11.378906 9.351562 11.25 9.359375 11.125 C 9.386719 10.675781 9.195312 10.238281 9.082031 9.804688 L 9.027344 9.582031 C 9.140625 9.40625 9.265625 9.257812 9.429688 9.128906 C 9.445312 9.136719 9.480469 9.148438 9.605469 9.214844 C 9.847656 9.34375 10.101562 9.488281 10.375 9.476562 C 10.667969 9.460938 10.90625 9.273438 11.203125 9.253906 C 11.21875 9.308594 11.441406 10.132812 11.507812 10.375 Z M 11.507812 10.375 "/><path style=" stroke:none;fill-rule:nonzero;fill:#ffc2a5;fill-opacity:1;" d="M 12.347656 7.890625 C 12.28125 8.570312 12.121094 9.253906 11.746094 9.820312 C 11.367188 10.390625 10.753906 10.828125 10.074219 10.863281 C 9.664062 10.882812 9.246094 10.753906 8.921875 10.503906 C 8.0625 9.871094 7.96875 8.488281 8.183594 7.4375 C 8.445312 6.199219 9.367188 4.96875 10.636719 5.066406 C 10.859375 5.082031 11.074219 5.136719 11.277344 5.234375 C 11.863281 5.507812 12.199219 6.054688 12.320312 6.6875 C 12.394531 7.082031 12.386719 7.492188 12.347656 7.890625 Z M 12.347656 7.890625 "/><path style=" stroke:none;fill-rule:nonzero;fill:#18142e;fill-opacity:1;" d="M 9.949219 6.222656 C 10.164062 6 10.261719 5.691406 10.484375 5.472656 C 10.59375 5.367188 10.738281 5.285156 10.890625 5.28125 C 11.132812 5.277344 11.179688 5.5625 11.308594 5.707031 C 11.375 5.785156 11.472656 5.84375 11.578125 5.847656 C 11.703125 5.847656 11.820312 5.761719 11.878906 5.648438 C 11.9375 5.535156 11.941406 5.402344 11.921875 5.277344 C 11.859375 4.933594 11.585938 4.632812 11.246094 4.539062 C 11.101562 4.5 10.992188 4.507812 10.851562 4.558594 C 10.503906 4.6875 10.179688 5.007812 10.023438 5.539062 "/><path style=" stroke:none;fill-rule:nonzero;fill:#12181c;fill-opacity:1;" d="M 9.675781 6.960938 C 9.613281 6.933594 9.542969 6.9375 9.476562 6.9375 C 9.097656 6.949219 8.71875 6.957031 8.375 7.117188 C 8.253906 7.171875 8.15625 7.246094 8.050781 7.328125 C 8.613281 7.246094 9.179688 7.230469 9.742188 7.285156 C 9.785156 7.289062 9.820312 7.25 9.816406 7.207031 C 9.804688 7.105469 9.777344 7.007812 9.675781 6.960938 Z M 9.675781 6.960938 "/><path style=" stroke:none;fill-rule:nonzero;fill:#261518;fill-opacity:1;" d="M 9.15625 7.621094 C 9.214844 7.625 9.257812 7.660156 9.292969 7.730469 C 9.328125 7.800781 9.339844 7.882812 9.335938 7.976562 C 9.328125 8.070312 9.304688 8.152344 9.261719 8.214844 C 9.21875 8.28125 9.167969 8.308594 9.113281 8.304688 C 9.058594 8.304688 9.011719 8.265625 8.980469 8.195312 C 8.945312 8.128906 8.929688 8.046875 8.9375 7.949219 C 8.941406 7.855469 8.96875 7.777344 9.011719 7.710938 C 9.054688 7.648438 9.101562 7.617188 9.15625 7.621094 Z M 9.15625 7.621094 "/><path style=" stroke:none;fill-rule:nonzero;fill:#261518;fill-opacity:1;" d="M 11.15625 8 C 11.160156 8.097656 11.144531 8.175781 11.105469 8.246094 C 11.070312 8.316406 11.023438 8.351562 10.96875 8.351562 C 10.914062 8.355469 10.867188 8.324219 10.824219 8.257812 C 10.78125 8.191406 10.757812 8.113281 10.753906 8.015625 C 10.753906 7.921875 10.769531 7.839844 10.804688 7.769531 C 10.839844 7.703125 10.886719 7.667969 10.941406 7.664062 C 10.996094 7.664062 11.046875 7.695312 11.085938 7.761719 C 11.128906 7.824219 11.152344 7.90625 11.15625 8 Z M 11.15625 8 "/><path style=" stroke:none;fill-rule:nonzero;fill:#e0916e;fill-opacity:1;" d="M 9.757812 9.382812 C 9.613281 9.347656 9.492188 9.273438 9.421875 9.175781 C 9.335938 9.050781 9.332031 8.886719 9.414062 8.777344 C 9.527344 8.621094 9.789062 8.59375 9.976562 8.644531 C 10.039062 7.972656 10.035156 7.292969 9.964844 6.621094 C 9.964844 6.597656 9.980469 6.578125 10.003906 6.574219 C 10.023438 6.574219 10.042969 6.589844 10.046875 6.613281 C 10.117188 7.304688 10.121094 8.007812 10.054688 8.703125 C 10.050781 8.726562 10.023438 8.746094 10 8.734375 C 9.902344 8.699219 9.792969 8.691406 9.691406 8.710938 C 9.59375 8.726562 9.519531 8.769531 9.476562 8.824219 C 9.417969 8.90625 9.425781 9.035156 9.488281 9.128906 C 9.546875 9.210938 9.648438 9.273438 9.777344 9.304688 C 9.894531 9.332031 10.019531 9.328125 10.136719 9.328125 C 10.160156 9.328125 10.179688 9.34375 10.179688 9.367188 C 10.179688 9.390625 10.160156 9.40625 10.140625 9.40625 C 10.011719 9.410156 9.882812 9.414062 9.757812 9.382812 Z M 9.757812 9.382812 "/><path style=" stroke:none;fill-rule:nonzero;fill:#12181c;fill-opacity:1;" d="M 10.554688 6.960938 C 10.617188 6.933594 10.6875 6.9375 10.753906 6.9375 C 11.128906 6.949219 11.511719 6.957031 11.855469 7.117188 C 11.976562 7.171875 12.074219 7.246094 12.175781 7.328125 C 11.617188 7.246094 11.046875 7.230469 10.484375 7.285156 C 10.441406 7.289062 10.40625 7.25 10.410156 7.207031 C 10.425781 7.105469 10.449219 7.007812 10.554688 6.960938 Z M 10.554688 6.960938 "/><path style=" stroke:none;fill-rule:nonzero;fill:#27254c;fill-opacity:1;" d="M 8.167969 7.578125 L 8.15625 7.59375 C 8.152344 7.59375 8.152344 7.59375 8.152344 7.59375 C 8.15625 7.566406 8.160156 7.539062 8.167969 7.515625 C 8.167969 7.535156 8.167969 7.554688 8.167969 7.578125 Z M 8.167969 7.578125 "/><path style=" stroke:none;fill-rule:nonzero;fill:#27254c;fill-opacity:1;" d="M 10.628906 5.058594 C 10.628906 5.0625 10.625 5.0625 10.625 5.066406 Z M 10.628906 5.058594 "/><path style=" stroke:none;fill-rule:nonzero;fill:#27254c;fill-opacity:1;" d="M 10.625 5.066406 C 10.507812 5.246094 10.46875 5.480469 10.410156 5.691406 C 10.164062 6.554688 9.527344 7.1875 8.765625 7.394531 C 8.542969 7.457031 8.265625 7.464844 8.152344 7.695312 C 8.171875 7.648438 8.171875 7.582031 8.167969 7.515625 C 8.160156 7.335938 8.285156 7.046875 8.335938 6.90625 C 8.707031 5.886719 9.53125 4.992188 10.625 5.066406 Z M 10.625 5.066406 "/><path style=" stroke:none;fill-rule:nonzero;fill:#27254c;fill-opacity:1;" d="M 10.636719 5.066406 C 10.621094 5.082031 10.605469 5.101562 10.59375 5.121094 C 10.601562 5.101562 10.613281 5.082031 10.625 5.066406 C 10.628906 5.066406 10.632812 5.066406 10.636719 5.066406 Z M 10.636719 5.066406 "/><path style=" stroke:none;fill-rule:nonzero;fill:#27254c;fill-opacity:1;" d="M 12.375 7.421875 C 12.246094 7.535156 12.238281 7.695312 12.144531 7.796875 C 12.144531 7.589844 12.117188 7.378906 12.074219 7.175781 C 12.03125 6.984375 11.941406 6.804688 11.917969 6.617188 C 11.90625 6.539062 11.90625 6.460938 11.886719 6.382812 C 11.824219 6.160156 11.59375 6.03125 11.445312 5.855469 C 11.339844 5.726562 11.289062 5.582031 11.261719 5.421875 C 11.253906 5.359375 11.261719 5.296875 11.277344 5.234375 C 11.46875 5.324219 11.648438 5.449219 11.800781 5.613281 C 12.25 6.085938 12.390625 6.757812 12.375 7.421875 Z M 12.375 7.421875 "/><path style=" stroke:none;fill-rule:nonzero;fill:#ffc2a5;fill-opacity:1;" d="M 12.042969 7.691406 C 12.105469 7.507812 12.277344 7.363281 12.472656 7.332031 C 12.664062 7.296875 12.871094 7.371094 13.007812 7.511719 C 13.277344 7.792969 13.253906 8.265625 12.925781 8.558594 C 12.785156 8.683594 12.601562 8.761719 12.414062 8.75 C 12.226562 8.734375 12.042969 8.621094 11.972656 8.449219 "/><path style=" stroke:none;fill-rule:nonzero;fill:#e0916e;fill-opacity:1;" d="M 12.398438 8.296875 C 12.390625 8.277344 12.402344 8.253906 12.421875 8.246094 C 12.589844 8.179688 12.644531 8.050781 12.613281 7.957031 C 12.589844 7.878906 12.496094 7.828125 12.410156 7.84375 C 12.328125 7.855469 12.253906 7.921875 12.222656 8.011719 C 12.21875 8.03125 12.195312 8.042969 12.171875 8.035156 C 12.152344 8.03125 12.140625 8.007812 12.148438 7.984375 C 12.183594 7.871094 12.285156 7.777344 12.398438 7.761719 C 12.523438 7.742188 12.652344 7.816406 12.691406 7.933594 C 12.734375 8.066406 12.660156 8.238281 12.453125 8.320312 C 12.429688 8.328125 12.40625 8.320312 12.398438 8.296875 Z M 12.398438 8.296875 "/><path style=" stroke:none;fill-rule:nonzero;fill:#e0916e;fill-opacity:1;" d="M 9.625 10.082031 C 9.605469 10.070312 9.597656 10.046875 9.609375 10.027344 C 9.621094 10.007812 9.648438 10.003906 9.664062 10.011719 C 9.828125 10.105469 10.078125 10.105469 10.347656 9.898438 C 10.363281 9.882812 10.390625 9.886719 10.402344 9.902344 C 10.417969 9.921875 10.414062 9.945312 10.398438 9.960938 C 10.277344 10.054688 10.15625 10.113281 10.03125 10.136719 C 9.894531 10.167969 9.746094 10.152344 9.625 10.082031 Z M 9.625 10.082031 "/><path style=" stroke:none;fill-rule:nonzero;fill:#27254c;fill-opacity:1;" d="M 11.636719 4.027344 C 11.578125 4.035156 11.527344 4.03125 11.535156 4.03125 C 11.511719 4.03125 11.492188 4.015625 11.492188 3.992188 C 11.492188 3.96875 11.511719 3.953125 11.535156 3.953125 C 11.566406 3.953125 11.601562 3.949219 11.636719 3.945312 C 11.625 3.578125 11.632812 3.1875 11.875 2.890625 C 12.015625 2.722656 12.214844 2.621094 12.410156 2.625 C 12.707031 2.628906 12.886719 2.859375 12.75 3.199219 C 12.582031 3.617188 12.132812 3.945312 11.71875 4.015625 C 11.722656 4.078125 11.644531 4.078125 11.636719 4.027344 Z M 11.9375 2.941406 C 11.714844 3.214844 11.703125 3.589844 11.714844 3.933594 C 12.09375 3.863281 12.515625 3.558594 12.675781 3.167969 C 12.789062 2.886719 12.65625 2.710938 12.40625 2.707031 C 12.25 2.703125 12.070312 2.78125 11.9375 2.941406 Z M 11.9375 2.941406 "/><path style=" stroke:none;fill-rule:nonzero;fill:#18142e;fill-opacity:1;" d="M 11.359375 4.441406 C 11.339844 4.429688 11.335938 4.402344 11.351562 4.386719 L 11.683594 3.910156 C 11.695312 3.890625 11.722656 3.886719 11.742188 3.898438 C 11.757812 3.910156 11.761719 3.9375 11.75 3.953125 L 11.417969 4.429688 C 11.402344 4.449219 11.378906 4.453125 11.359375 4.441406 Z M 11.359375 4.441406 "/><g clip-rule="nonzero" clip-path="url(#d2a64f9588)"><path style=" stroke:none;fill-rule:nonzero;fill:#bfc9d1;fill-opacity:1;" d="M 25.023438 27.957031 L 0.554688 27.957031 L 2.902344 25.363281 L 22.675781 25.363281 Z M 25.023438 27.957031 "/></g><path style=" stroke:none;fill-rule:nonzero;fill:#ff774c;fill-opacity:1;" d="M 21.261719 25.859375 C 20.695312 25.859375 20.230469 25.398438 20.230469 24.832031 C 20.230469 24.261719 20.695312 23.800781 21.261719 23.800781 C 21.832031 23.800781 22.296875 24.261719 22.296875 24.832031 C 22.296875 25.398438 21.832031 25.859375 21.261719 25.859375 Z M 21.265625 24.183594 C 21.152344 24.316406 21.132812 24.480469 21.050781 24.496094 C 21.03125 24.496094 21.011719 24.492188 20.996094 24.480469 C 20.953125 24.453125 20.933594 24.40625 20.914062 24.359375 C 20.894531 24.3125 20.875 24.265625 20.832031 24.238281 C 20.722656 24.160156 20.613281 24.347656 20.570312 24.421875 C 20.417969 24.679688 20.421875 24.996094 20.578125 25.25 C 20.613281 25.3125 20.75 25.53125 20.851562 25.480469 C 20.875 25.46875 20.878906 25.453125 20.957031 25.316406 C 20.976562 25.28125 21.007812 25.238281 21.050781 25.242188 C 21.074219 25.246094 21.09375 25.265625 21.109375 25.285156 C 21.265625 25.453125 21.242188 25.523438 21.382812 25.554688 C 21.785156 25.648438 22.070312 25.171875 22.070312 24.832031 C 22.070312 24.5 21.863281 24.207031 21.570312 24.085938 C 21.460938 24.042969 21.339844 24.097656 21.265625 24.183594 Z M 21.265625 24.183594 "/><g clip-rule="nonzero" clip-path="url(#6f0e1494fc)"><path style=" stroke:none;fill-rule:nonzero;fill:#394049;fill-opacity:1;" d="M 0.554688 27.957031 L 25.023438 27.957031 L 25.023438 29.019531 L 0.554688 29.019531 Z M 0.554688 27.957031 "/></g><path style=" stroke:none;fill-rule:nonzero;fill:#fccf36;fill-opacity:1;" d="M 15.246094 18.59375 C 15.222656 18.585938 15.210938 18.566406 15.214844 18.546875 C 15.394531 17.6875 15.566406 16.6875 15.328125 15.742188 C 15.0625 14.671875 14.234375 13.621094 14.425781 12.460938 C 14.429688 12.441406 14.449219 12.425781 14.46875 12.429688 C 14.488281 12.433594 14.503906 12.453125 14.5 12.472656 C 14.308594 13.621094 15.128906 14.625 15.402344 15.722656 C 15.640625 16.683594 15.46875 17.691406 15.289062 18.5625 C 15.285156 18.582031 15.265625 18.597656 15.246094 18.59375 Z M 15.246094 18.59375 "/><path style=" stroke:none;fill-rule:nonzero;fill:#27254c;fill-opacity:1;" d="M 8.398438 23.292969 C 8.402344 23.484375 8.390625 23.667969 8.371094 23.847656 C 8.347656 24.023438 8.316406 24.179688 8.277344 24.316406 C 8.234375 24.449219 8.1875 24.554688 8.132812 24.628906 C 8.078125 24.703125 8.023438 24.738281 7.960938 24.738281 C 7.902344 24.742188 7.84375 24.703125 7.789062 24.632812 C 7.734375 24.558594 7.683594 24.457031 7.640625 24.320312 C 7.597656 24.183594 7.566406 24.03125 7.539062 23.851562 C 7.515625 23.675781 7.503906 23.492188 7.5 23.300781 C 7.5 23.109375 7.511719 22.925781 7.53125 22.75 C 7.550781 22.570312 7.582031 22.414062 7.625 22.28125 C 7.664062 22.144531 7.714844 22.039062 7.769531 21.964844 C 7.820312 21.890625 7.878906 21.855469 7.9375 21.855469 C 7.996094 21.855469 8.054688 21.890625 8.109375 21.964844 C 8.167969 22.035156 8.214844 22.140625 8.257812 22.273438 C 8.300781 22.410156 8.335938 22.566406 8.359375 22.742188 C 8.382812 22.917969 8.398438 23.101562 8.398438 23.292969 Z M 8.398438 23.292969 "/><path style=" stroke:none;fill-rule:nonzero;fill:#ffc2a5;fill-opacity:1;" d="M 11.824219 22.671875 C 11.820312 22.734375 11.769531 22.78125 11.714844 22.800781 C 11.660156 22.824219 11.597656 22.820312 11.539062 22.816406 C 11.039062 22.777344 10.542969 22.6875 10.042969 22.597656 C 10.394531 22.742188 10.746094 22.886719 11.09375 23.03125 C 11.265625 23.101562 12.269531 23.492188 11.722656 23.808594 C 11.648438 23.851562 11.5625 23.867188 11.480469 23.878906 C 11.578125 23.902344 11.636719 24.023438 11.617188 24.125 C 11.597656 24.226562 11.515625 24.308594 11.425781 24.351562 C 11.339844 24.390625 11.246094 24.40625 11.152344 24.414062 C 11.21875 24.414062 11.277344 24.476562 11.285156 24.546875 C 11.289062 24.625 11.238281 24.699219 11.175781 24.738281 C 10.992188 24.855469 10.425781 24.820312 10.21875 24.804688 C 9.910156 24.785156 9.585938 24.75 9.320312 24.585938 C 9.136719 24.476562 8.992188 24.3125 8.835938 24.164062 C 8.777344 24.109375 8.714844 24.144531 8.644531 24.152344 C 8.527344 24.167969 8.152344 24.203125 8.066406 24.210938 C 7.503906 24.261719 6.875 24.292969 6.378906 24.296875 L 6.773438 23.308594 L 6.769531 23.308594 L 7.171875 22.308594 C 7.335938 22.242188 7.519531 22.277344 7.695312 22.261719 C 7.851562 22.246094 8.03125 22.179688 8.050781 22.175781 C 8.449219 22.050781 8.585938 22.011719 8.742188 21.945312 C 9.011719 21.828125 9.265625 21.644531 9.554688 21.613281 C 9.953125 21.574219 10.230469 21.855469 10.550781 22.046875 C 10.875 22.242188 11.226562 22.386719 11.589844 22.476562 C 11.695312 22.503906 11.828125 22.558594 11.824219 22.671875 Z M 11.824219 22.671875 "/><path style=" stroke:none;fill-rule:nonzero;fill:#e0916e;fill-opacity:1;" d="M 8.066406 24.210938 C 7.703125 24.246094 7.324219 24.269531 7.015625 24.277344 C 6.878906 24.007812 6.785156 23.664062 6.773438 23.308594 L 6.769531 23.308594 L 7.171875 22.308594 C 7.335938 22.242188 7.519531 22.277344 7.695312 22.261719 C 7.851562 22.246094 8.03125 22.179688 8.050781 22.175781 C 7.90625 22.570312 7.871094 23.003906 7.886719 23.429688 C 7.898438 23.71875 7.9375 23.96875 8.066406 24.210938 Z M 8.066406 24.210938 "/><g clip-rule="nonzero" clip-path="url(#ec8a80f792)"><path style=" stroke:none;fill-rule:nonzero;fill:#f8e77f;fill-opacity:1;" d="M 7.917969 24.726562 L 7.917969 24.734375 C 7.347656 24.695312 5.476562 24.574219 4.308594 24.496094 C 3.277344 24.425781 2.585938 24.414062 1.984375 24.125 C 1.015625 23.664062 0.820312 22.601562 1.109375 21.605469 C 1.378906 20.65625 1.78125 18.628906 2.886719 15.78125 C 3.484375 14.253906 4.261719 12.691406 5.90625 12.523438 C 5.925781 12.65625 5.777344 11.644531 6.550781 16.917969 C 6.476562 17.050781 6.363281 17.269531 6.226562 17.539062 C 6.226562 17.539062 6.226562 17.539062 6.226562 17.542969 C 6.011719 17.964844 5.742188 18.515625 5.484375 19.058594 C 5.304688 19.441406 5.132812 19.816406 4.988281 20.140625 C 4.964844 20.195312 4.941406 20.25 4.921875 20.300781 C 4.722656 20.765625 4.601562 21.089844 4.648438 21.105469 C 5.660156 21.488281 6.792969 21.75 8 21.847656 C 7.761719 21.894531 7.5625 22.515625 7.542969 23.277344 C 7.523438 24.035156 7.6875 24.660156 7.917969 24.726562 Z M 7.917969 24.726562 "/></g><path style=" stroke:none;fill-rule:nonzero;fill:#fccf36;fill-opacity:1;" d="M 7.171875 23.667969 C 6.960938 23.867188 6.890625 24.046875 6.761719 24.300781 C 6.699219 24.417969 6.636719 24.539062 6.558594 24.644531 C 6.550781 24.640625 3.414062 24.441406 3.121094 24.410156 C 3.671875 24.316406 3.863281 24.191406 4.082031 23.703125 C 4.433594 22.910156 4.519531 22.035156 4.523438 21.179688 C 4.527344 20.585938 4.53125 19.992188 4.53125 19.402344 L 4.988281 20.140625 C 4.964844 20.195312 4.941406 20.25 4.921875 20.300781 C 4.722656 20.765625 4.601562 21.089844 4.648438 21.105469 C 5.03125 21.25 5.421875 21.375 5.816406 21.476562 Z M 7.171875 23.667969 "/><path style=" stroke:none;fill-rule:nonzero;fill:#fccf36;fill-opacity:1;" d="M 5.753906 18.5 C 5.664062 18.683594 5.574219 18.871094 5.484375 19.058594 C 5.273438 19.503906 5.074219 19.945312 4.921875 20.300781 C 4.832031 20.238281 4.769531 20.148438 4.75 20.042969 C 4.734375 19.949219 4.753906 19.855469 4.773438 19.765625 C 5.429688 16.683594 5.523438 16.121094 5.777344 15.441406 C 5.570312 16.492188 5.488281 17.449219 5.753906 18.5 Z M 5.753906 18.5 "/><path style=" stroke:none;fill-rule:nonzero;fill:#fccf36;fill-opacity:1;" d="M 7.90625 24.761719 C 7.652344 24.691406 7.484375 24.066406 7.503906 23.277344 C 7.511719 23.125 7.605469 21.828125 7.996094 21.808594 C 8.015625 21.808594 8.035156 21.824219 8.039062 21.847656 C 8.039062 21.871094 8.019531 21.886719 8 21.890625 C 7.757812 21.898438 7.613281 22.746094 7.582031 23.277344 C 7.5625 24.082031 7.746094 24.636719 7.929688 24.6875 C 7.949219 24.695312 7.960938 24.714844 7.957031 24.738281 C 7.949219 24.757812 7.925781 24.769531 7.90625 24.761719 Z M 7.90625 24.761719 "/><path style=" stroke:none;fill-rule:nonzero;fill:#fccf36;fill-opacity:1;" d="M 3.121094 21.648438 C 3.105469 21.628906 3.109375 21.605469 3.125 21.589844 C 3.554688 21.261719 4.078125 21.074219 4.609375 21.0625 C 4.628906 21.0625 4.648438 21.078125 4.652344 21.101562 C 4.652344 21.121094 4.632812 21.140625 4.613281 21.140625 C 4.097656 21.152344 3.589844 21.335938 3.175781 21.652344 C 3.15625 21.667969 3.132812 21.664062 3.121094 21.648438 Z M 3.121094 21.648438 "/><path style=" stroke:none;fill-rule:nonzero;fill:#e0916e;fill-opacity:1;" d="M 11.105469 24.441406 C 10.621094 24.390625 10.371094 24.273438 10.085938 24.214844 C 10.066406 24.210938 10.050781 24.1875 10.054688 24.167969 C 10.058594 24.144531 10.082031 24.132812 10.101562 24.136719 C 10.261719 24.167969 10.414062 24.222656 10.570312 24.265625 C 10.75 24.3125 10.929688 24.34375 11.113281 24.363281 C 11.132812 24.363281 11.148438 24.382812 11.148438 24.40625 C 11.144531 24.429688 11.125 24.441406 11.105469 24.441406 Z M 11.105469 24.441406 "/><path style=" stroke:none;fill-rule:nonzero;fill:#e0916e;fill-opacity:1;" d="M 11.445312 23.894531 C 11.269531 23.882812 11.1875 23.84375 10.324219 23.535156 C 10.300781 23.527344 10.292969 23.503906 10.296875 23.484375 C 10.304688 23.464844 10.328125 23.453125 10.347656 23.460938 C 11.195312 23.765625 11.285156 23.804688 11.449219 23.816406 C 11.472656 23.820312 11.488281 23.835938 11.484375 23.859375 C 11.484375 23.878906 11.46875 23.898438 11.445312 23.894531 Z M 11.445312 23.894531 "/><path style=" stroke:none;fill-rule:nonzero;fill:#fccf36;fill-opacity:1;" d="M 6.078125 19.648438 C 5.910156 19.113281 5.738281 18.574219 5.617188 18.042969 C 5.320312 16.714844 5.925781 15.417969 5.996094 14.117188 C 5.996094 14.09375 6.015625 14.082031 6.035156 14.082031 C 6.054688 14.082031 6.070312 14.097656 6.070312 14.117188 C 6 15.425781 5.398438 16.722656 5.691406 18.027344 C 5.808594 18.558594 5.984375 19.097656 6.152344 19.628906 C 6.15625 19.648438 6.144531 19.667969 6.125 19.671875 C 6.105469 19.679688 6.085938 19.667969 6.078125 19.648438 Z M 6.078125 19.648438 "/><path style=" stroke:none;fill-rule:nonzero;fill:#387ae3;fill-opacity:1;" d="M 5.203125 26.375 L 15.898438 26.375 L 15.898438 27.117188 L 5.203125 27.117188 Z M 5.203125 26.375 "/><path style=" stroke:none;fill-rule:nonzero;fill:#9dd3f5;fill-opacity:1;" d="M 4.546875 19.398438 L 16.816406 19.398438 L 16.105469 26.621094 L 5.058594 26.621094 Z M 4.546875 19.398438 "/><path style=" stroke:none;fill-rule:nonzero;fill:#ffffff;fill-opacity:1;" d="M 12.589844 23.105469 C 12.589844 23.207031 12.546875 23.300781 12.464844 23.394531 C 12.382812 23.484375 12.265625 23.566406 12.117188 23.636719 C 11.964844 23.707031 11.789062 23.761719 11.589844 23.800781 C 11.394531 23.839844 11.1875 23.859375 10.972656 23.859375 C 10.757812 23.859375 10.550781 23.839844 10.355469 23.800781 C 10.15625 23.761719 9.980469 23.707031 9.828125 23.636719 C 9.679688 23.566406 9.5625 23.484375 9.480469 23.394531 C 9.398438 23.300781 9.355469 23.207031 9.355469 23.105469 C 9.355469 23.003906 9.398438 22.910156 9.480469 22.816406 C 9.5625 22.726562 9.679688 22.644531 9.828125 22.574219 C 9.980469 22.503906 10.15625 22.449219 10.355469 22.410156 C 10.550781 22.371094 10.757812 22.351562 10.972656 22.351562 C 11.1875 22.351562 11.394531 22.371094 11.589844 22.410156 C 11.789062 22.449219 11.964844 22.503906 12.117188 22.574219 C 12.265625 22.644531 12.382812 22.726562 12.464844 22.816406 C 12.546875 22.910156 12.589844 23.003906 12.589844 23.105469 Z M 12.589844 23.105469 "/><path style=" stroke:none;fill-rule:nonzero;fill:#8686e1;fill-opacity:1;" d="M 21.121094 23.175781 L 21.121094 26.46875 C 21.121094 26.765625 20.371094 27.007812 19.449219 27.007812 C 18.527344 27.007812 17.777344 26.765625 17.777344 26.46875 L 17.777344 23.175781 Z M 21.121094 23.175781 "/><path style=" stroke:none;fill-rule:nonzero;fill:#5e41d3;fill-opacity:1;" d="M 21.121094 23.175781 C 21.121094 23.222656 21.078125 23.269531 20.992188 23.316406 C 20.910156 23.359375 20.789062 23.402344 20.632812 23.4375 C 20.476562 23.46875 20.292969 23.496094 20.089844 23.515625 C 19.882812 23.535156 19.671875 23.542969 19.449219 23.542969 C 19.226562 23.542969 19.015625 23.535156 18.808594 23.515625 C 18.605469 23.496094 18.425781 23.46875 18.269531 23.4375 C 18.109375 23.402344 17.988281 23.359375 17.90625 23.316406 C 17.820312 23.269531 17.777344 23.222656 17.777344 23.175781 C 17.777344 23.125 17.820312 23.078125 17.90625 23.035156 C 17.988281 22.988281 18.109375 22.949219 18.269531 22.914062 C 18.425781 22.878906 18.605469 22.851562 18.808594 22.835938 C 19.015625 22.816406 19.226562 22.804688 19.449219 22.804688 C 19.671875 22.804688 19.882812 22.816406 20.089844 22.835938 C 20.292969 22.851562 20.476562 22.878906 20.632812 22.914062 C 20.789062 22.949219 20.910156 22.988281 20.992188 23.035156 C 21.078125 23.078125 21.121094 23.125 21.121094 23.175781 Z M 21.121094 23.175781 "/><path style=" stroke:none;fill-rule:nonzero;fill:#ffffff;fill-opacity:1;" d="M 20.894531 23.175781 C 20.894531 23.222656 20.824219 23.269531 20.703125 23.304688 C 20.144531 23.480469 18.753906 23.480469 18.195312 23.304688 C 17.640625 23.132812 18.335938 22.914062 19.449219 22.914062 C 20.25 22.914062 20.894531 23.03125 20.894531 23.175781 Z M 20.894531 23.175781 "/><path style=" stroke:none;fill-rule:nonzero;fill:#e0916e;fill-opacity:1;" d="M 20.703125 23.304688 C 20.144531 23.480469 18.753906 23.480469 18.195312 23.304688 C 18.753906 23.132812 20.144531 23.132812 20.703125 23.304688 Z M 20.703125 23.304688 "/><path style=" stroke:none;fill-rule:nonzero;fill:#bfc9d1;fill-opacity:1;" d="M 18.929688 19.65625 C 18.84375 20.214844 18.730469 20.832031 18.90625 21.390625 C 18.980469 21.65625 19.152344 21.949219 19.230469 22.21875 C 19.324219 22.507812 19.339844 22.867188 19.152344 23.105469 C 19.214844 22.96875 19.230469 22.820312 19.214844 22.679688 C 19.15625 21.988281 18.535156 21.621094 18.691406 20.527344 C 18.730469 20.222656 18.816406 19.933594 18.929688 19.65625 Z M 18.929688 19.65625 "/><path style=" stroke:none;fill-rule:nonzero;fill:#bfc9d1;fill-opacity:1;" d="M 19.609375 19.207031 C 19.523438 19.769531 19.410156 20.382812 19.585938 20.945312 C 19.703125 21.351562 19.996094 21.742188 19.976562 22.230469 C 19.96875 22.382812 19.925781 22.539062 19.832031 22.660156 C 19.894531 22.519531 19.910156 22.375 19.894531 22.230469 C 19.835938 21.546875 19.214844 21.175781 19.371094 20.078125 C 19.410156 19.777344 19.496094 19.488281 19.609375 19.207031 Z M 19.609375 19.207031 "/><path style=" stroke:none;fill-rule:nonzero;fill:#df2715;fill-opacity:1;" d="M 22.050781 23.101562 C 21.949219 23.046875 21.855469 22.976562 21.773438 22.902344 C 21.761719 22.894531 21.761719 22.878906 21.769531 22.867188 C 21.777344 22.859375 21.792969 22.859375 21.804688 22.867188 C 21.886719 22.941406 21.976562 23.007812 22.074219 23.0625 C 22.085938 23.070312 22.089844 23.082031 22.085938 23.09375 C 22.078125 23.105469 22.0625 23.109375 22.050781 23.101562 Z M 22.050781 23.101562 "/><path style=" stroke:none;fill-rule:nonzero;fill:#df2715;fill-opacity:1;" d="M 22.695312 23.324219 C 22.683594 23.324219 22.671875 23.3125 22.675781 23.300781 C 22.675781 23.285156 22.6875 23.277344 22.703125 23.28125 C 22.917969 23.3125 23.148438 23.3125 23.367188 23.269531 C 23.378906 23.269531 23.390625 23.277344 23.394531 23.289062 C 23.394531 23.300781 23.386719 23.316406 23.375 23.316406 C 23.144531 23.359375 22.910156 23.359375 22.695312 23.324219 Z M 23.980469 23.074219 C 23.972656 23.0625 23.976562 23.046875 23.988281 23.039062 C 24.179688 22.933594 24.351562 22.792969 24.507812 22.625 C 24.515625 22.613281 24.53125 22.613281 24.539062 22.621094 C 24.550781 22.632812 24.550781 22.644531 24.542969 22.65625 C 24.382812 22.828125 24.207031 22.96875 24.011719 23.082031 C 24 23.089844 23.988281 23.085938 23.980469 23.074219 Z M 24.898438 22.109375 C 24.886719 22.101562 24.878906 22.089844 24.886719 22.078125 C 24.992188 21.871094 25.066406 21.652344 25.105469 21.449219 C 25.109375 21.4375 25.121094 21.425781 25.132812 21.429688 C 25.144531 21.433594 25.152344 21.445312 25.152344 21.457031 C 25.109375 21.667969 25.035156 21.890625 24.929688 22.097656 C 24.925781 22.105469 24.90625 22.113281 24.898438 22.109375 Z M 24.855469 21.371094 C 24.855469 21.355469 24.863281 21.34375 24.878906 21.34375 C 25.082031 21.316406 25.296875 21.246094 25.503906 21.128906 C 25.515625 21.125 25.53125 21.128906 25.539062 21.140625 C 25.542969 21.152344 25.539062 21.164062 25.527344 21.171875 C 25.363281 21.261719 25.1875 21.328125 25.007812 21.367188 C 24.96875 21.375 24.925781 21.382812 24.882812 21.390625 C 24.871094 21.390625 24.859375 21.382812 24.855469 21.371094 Z M 24.203125 21.351562 C 23.980469 21.296875 23.765625 21.199219 23.585938 21.066406 C 23.578125 21.058594 23.574219 21.042969 23.582031 21.035156 C 23.589844 21.023438 23.605469 21.023438 23.613281 21.027344 C 23.789062 21.15625 23.996094 21.253906 24.214844 21.304688 C 24.226562 21.308594 24.234375 21.324219 24.234375 21.335938 C 24.230469 21.347656 24.214844 21.355469 24.203125 21.351562 Z M 25.125 20.785156 C 25.089844 20.550781 25.011719 20.34375 24.886719 20.175781 C 24.878906 20.164062 24.882812 20.148438 24.890625 20.140625 C 24.902344 20.132812 24.917969 20.136719 24.925781 20.148438 C 25.054688 20.324219 25.136719 20.535156 25.171875 20.777344 C 25.171875 20.792969 25.164062 20.804688 25.152344 20.804688 C 25.140625 20.808594 25.128906 20.800781 25.125 20.785156 Z M 26.03125 20.757812 C 26.023438 20.746094 26.019531 20.730469 26.03125 20.722656 C 26.183594 20.5625 26.3125 20.378906 26.414062 20.179688 C 26.421875 20.167969 26.433594 20.164062 26.445312 20.167969 C 26.457031 20.175781 26.460938 20.191406 26.457031 20.199219 C 26.351562 20.402344 26.222656 20.589844 26.066406 20.753906 C 26.054688 20.765625 26.039062 20.765625 26.03125 20.757812 Z M 23.160156 20.566406 C 23.152344 20.566406 23.144531 20.5625 23.140625 20.554688 C 23.074219 20.425781 23.039062 20.28125 23.039062 20.152344 C 23.039062 20.050781 23.0625 19.960938 23.105469 19.886719 C 23.113281 19.875 23.125 19.871094 23.136719 19.875 C 23.148438 19.882812 23.152344 19.898438 23.144531 19.910156 C 23.105469 19.976562 23.085938 20.058594 23.085938 20.152344 C 23.085938 20.273438 23.121094 20.410156 23.183594 20.535156 C 23.1875 20.546875 23.183594 20.558594 23.171875 20.566406 C 23.167969 20.566406 23.164062 20.566406 23.160156 20.566406 Z M 24.371094 19.777344 C 24.175781 19.695312 23.945312 19.65625 23.71875 19.664062 C 23.703125 19.667969 23.695312 19.65625 23.695312 19.644531 C 23.695312 19.628906 23.703125 19.617188 23.71875 19.617188 C 23.953125 19.609375 24.1875 19.648438 24.386719 19.730469 C 24.398438 19.738281 24.40625 19.75 24.402344 19.761719 C 24.394531 19.773438 24.382812 19.78125 24.371094 19.777344 Z M 26.648438 19.578125 C 26.636719 19.574219 26.628906 19.5625 26.628906 19.550781 C 26.671875 19.324219 26.679688 19.097656 26.652344 18.886719 C 26.652344 18.875 26.660156 18.863281 26.675781 18.859375 C 26.6875 18.859375 26.699219 18.867188 26.699219 18.882812 C 26.726562 19.101562 26.71875 19.332031 26.675781 19.558594 C 26.671875 19.570312 26.660156 19.582031 26.648438 19.578125 Z M 25.859375 18.597656 C 25.847656 18.597656 25.835938 18.585938 25.835938 18.574219 C 25.835938 18.558594 25.847656 18.550781 25.859375 18.550781 C 26.082031 18.546875 26.300781 18.488281 26.5 18.390625 C 26.511719 18.386719 26.527344 18.390625 26.53125 18.402344 C 26.539062 18.414062 26.53125 18.429688 26.519531 18.433594 C 26.3125 18.53125 26.085938 18.59375 25.859375 18.597656 Z M 25.195312 18.449219 C 24.960938 18.335938 24.785156 18.160156 24.691406 17.996094 C 24.683594 17.984375 24.6875 17.96875 24.699219 17.964844 C 24.710938 17.957031 24.726562 17.960938 24.730469 17.972656 C 24.820312 18.128906 24.992188 18.296875 25.21875 18.40625 C 25.230469 18.414062 25.234375 18.429688 25.226562 18.4375 C 25.222656 18.453125 25.207031 18.457031 25.195312 18.449219 Z M 26.460938 18.253906 L 26.445312 18.226562 C 26.347656 18.042969 26.210938 17.875 26.046875 17.742188 C 26.035156 17.734375 26.035156 17.71875 26.042969 17.707031 C 26.050781 17.699219 26.066406 17.695312 26.074219 17.703125 C 26.375 17.949219 26.496094 18.21875 26.503906 18.230469 C 26.507812 18.242188 26.503906 18.257812 26.492188 18.261719 C 26.484375 18.269531 26.46875 18.265625 26.460938 18.253906 Z M 27.042969 18.042969 C 27.035156 18.035156 27.035156 18.019531 27.046875 18.011719 C 27.195312 17.863281 27.335938 17.691406 27.453125 17.484375 C 27.460938 17.476562 27.476562 17.472656 27.484375 17.476562 C 27.496094 17.484375 27.5 17.5 27.496094 17.507812 C 27.378906 17.707031 27.238281 17.890625 27.078125 18.046875 C 27.074219 18.050781 27.054688 18.054688 27.042969 18.042969 Z M 25.460938 17.433594 C 25.335938 17.398438 25.210938 17.378906 25.085938 17.378906 C 25.007812 17.378906 24.882812 17.386719 24.808594 17.417969 C 24.796875 17.421875 24.785156 17.414062 24.777344 17.402344 C 24.773438 17.390625 24.78125 17.378906 24.792969 17.371094 C 24.871094 17.339844 25 17.332031 25.082031 17.332031 C 25.121094 17.335938 25.265625 17.328125 25.472656 17.386719 C 25.484375 17.390625 25.492188 17.402344 25.488281 17.417969 C 25.484375 17.429688 25.472656 17.4375 25.460938 17.433594 Z M 27.726562 16.898438 C 27.710938 16.894531 27.707031 16.882812 27.707031 16.871094 C 27.765625 16.65625 27.796875 16.433594 27.800781 16.210938 C 27.800781 16.179688 27.847656 16.183594 27.847656 16.210938 C 27.84375 16.4375 27.8125 16.664062 27.753906 16.882812 C 27.75 16.894531 27.738281 16.902344 27.726562 16.898438 Z M 27.726562 16.898438 "/><path style=" stroke:none;fill-rule:nonzero;fill:#df2715;fill-opacity:1;" d="M 27.726562 15.542969 C 27.699219 15.433594 27.664062 15.324219 27.621094 15.222656 C 27.617188 15.210938 27.621094 15.195312 27.632812 15.191406 C 27.644531 15.1875 27.660156 15.191406 27.664062 15.203125 C 27.707031 15.308594 27.742188 15.417969 27.769531 15.53125 C 27.773438 15.542969 27.765625 15.554688 27.753906 15.558594 C 27.742188 15.5625 27.726562 15.554688 27.726562 15.542969 Z M 27.726562 15.542969 "/><g clip-rule="nonzero" clip-path="url(#b7c1e3c90d)"><path style=" stroke:none;fill-rule:nonzero;fill:#f2b9ad;fill-opacity:1;" d="M 19.300781 1.460938 L 29.589844 1.460938 L 29.589844 14.625 L 19.300781 14.625 Z M 19.300781 1.460938 "/></g><path style=" stroke:none;fill-rule:nonzero;fill:#9dd3f5;fill-opacity:1;" d="M 18.492188 0.640625 L 28.777344 0.640625 L 28.777344 13.804688 L 18.492188 13.804688 Z M 18.492188 0.640625 "/><path style=" stroke:none;fill-rule:nonzero;fill:#edf1f5;fill-opacity:1;" d="M 17.714844 0.0117188 L 28.003906 0.0117188 L 28.003906 13.175781 L 17.714844 13.175781 Z M 17.714844 0.0117188 "/><path style=" stroke:none;fill-rule:nonzero;fill:#bfc9d1;fill-opacity:0.61;" d="M 17.714844 0.0117188 L 28.003906 0.0117188 L 28.003906 1.367188 L 17.714844 1.367188 Z M 17.714844 0.0117188 "/><path style=" stroke:none;fill-rule:nonzero;fill:#72d497;fill-opacity:0.74;" d="M 19.0625 3.375 L 23.78125 3.375 L 23.78125 6.441406 L 19.0625 6.441406 Z M 19.0625 3.375 "/><path style=" stroke:none;fill-rule:nonzero;fill:#f8e77f;fill-opacity:0.74;" d="M 23.441406 9.714844 L 26.949219 9.714844 L 26.949219 12.125 L 23.441406 12.125 Z M 23.441406 9.714844 "/><path style=" stroke:none;fill-rule:nonzero;fill:#fccf36;fill-opacity:0.74;" d="M 24.339844 11.808594 L 24.796875 11.023438 L 25.160156 11.488281 L 25.691406 10.390625 L 26.148438 11.808594 Z M 24.339844 11.808594 "/><path style=" stroke:none;fill-rule:nonzero;fill:#27254c;fill-opacity:0.74;" d="M 26.609375 11.835938 L 23.78125 11.835938 C 23.765625 11.835938 23.753906 11.824219 23.753906 11.808594 L 23.753906 10.03125 C 23.753906 10.015625 23.765625 10.007812 23.78125 10.007812 L 26.609375 10.007812 C 26.625 10.007812 26.636719 10.015625 26.636719 10.03125 L 26.636719 11.808594 C 26.636719 11.824219 26.625 11.835938 26.609375 11.835938 Z M 23.804688 11.785156 L 26.585938 11.785156 L 26.585938 10.054688 L 23.804688 10.054688 Z M 23.804688 11.785156 "/><path style=" stroke:none;fill-rule:nonzero;fill:#27254c;fill-opacity:1;" d="M 26.839844 3.605469 C 25.933594 3.601562 25.101562 3.601562 24.210938 3.605469 C 24.199219 3.605469 24.191406 3.597656 24.191406 3.585938 C 24.191406 3.574219 24.199219 3.5625 24.210938 3.5625 C 25.101562 3.558594 25.933594 3.558594 26.839844 3.5625 C 26.851562 3.5625 26.859375 3.574219 26.859375 3.585938 C 26.859375 3.597656 26.851562 3.605469 26.839844 3.605469 Z M 26.839844 3.605469 "/><path style=" stroke:none;fill-rule:nonzero;fill:#27254c;fill-opacity:1;" d="M 25.519531 4.898438 C 25.085938 4.898438 24.65625 4.894531 24.210938 4.886719 C 24.199219 4.886719 24.191406 4.875 24.191406 4.863281 C 24.191406 4.851562 24.199219 4.84375 24.210938 4.84375 C 25.101562 4.859375 25.933594 4.859375 26.839844 4.84375 C 26.847656 4.84375 26.859375 4.851562 26.859375 4.863281 C 26.859375 4.875 26.851562 4.886719 26.839844 4.886719 C 26.386719 4.894531 25.953125 4.898438 25.519531 4.898438 Z M 25.519531 4.898438 "/><path style=" stroke:none;fill-rule:nonzero;fill:#27254c;fill-opacity:1;" d="M 24.210938 6.167969 C 24.199219 6.167969 24.191406 6.15625 24.191406 6.144531 C 24.191406 6.132812 24.199219 6.125 24.210938 6.125 C 25.101562 6.121094 25.933594 6.121094 26.839844 6.125 C 26.851562 6.125 26.859375 6.132812 26.859375 6.144531 C 26.859375 6.15625 26.851562 6.167969 26.839844 6.167969 C 25.933594 6.164062 25.101562 6.164062 24.210938 6.167969 Z M 24.210938 6.167969 "/><path style=" stroke:none;fill-rule:nonzero;fill:#27254c;fill-opacity:1;" d="M 26.839844 7.445312 L 18.878906 7.445312 C 18.867188 7.445312 18.855469 7.4375 18.855469 7.425781 C 18.855469 7.414062 18.867188 7.40625 18.878906 7.40625 L 26.839844 7.40625 C 26.851562 7.40625 26.859375 7.414062 26.859375 7.425781 C 26.859375 7.4375 26.851562 7.445312 26.839844 7.445312 Z M 26.839844 7.445312 "/><path style=" stroke:none;fill-rule:nonzero;fill:#27254c;fill-opacity:1;" d="M 26.839844 8.726562 L 18.878906 8.726562 C 18.867188 8.726562 18.855469 8.71875 18.855469 8.707031 C 18.855469 8.695312 18.867188 8.683594 18.878906 8.683594 L 26.839844 8.683594 C 26.851562 8.683594 26.859375 8.695312 26.859375 8.707031 C 26.859375 8.71875 26.851562 8.726562 26.839844 8.726562 Z M 26.839844 8.726562 "/><path style=" stroke:none;fill-rule:nonzero;fill:#27254c;fill-opacity:1;" d="M 21.054688 10.023438 C 20.332031 10.023438 19.609375 10.015625 18.878906 10.007812 C 18.867188 10.007812 18.855469 9.996094 18.855469 9.984375 C 18.855469 9.972656 18.867188 9.964844 18.878906 9.964844 C 20.339844 9.984375 21.765625 9.984375 23.234375 9.964844 C 23.261719 9.964844 23.261719 10.007812 23.234375 10.007812 C 22.5 10.015625 21.777344 10.023438 21.054688 10.023438 Z M 21.054688 10.023438 "/><path style=" stroke:none;fill-rule:nonzero;fill:#27254c;fill-opacity:1;" d="M 23.234375 11.285156 C 21.769531 11.285156 20.339844 11.285156 18.878906 11.285156 C 18.867188 11.285156 18.855469 11.277344 18.855469 11.265625 C 18.855469 11.253906 18.867188 11.246094 18.878906 11.246094 C 20.339844 11.246094 21.769531 11.246094 23.234375 11.246094 C 23.246094 11.246094 23.253906 11.253906 23.253906 11.265625 C 23.253906 11.277344 23.246094 11.285156 23.234375 11.285156 Z M 23.234375 11.285156 "/><path style=" stroke:none;fill-rule:nonzero;fill:#ffffff;fill-opacity:1;" d="M 18.996094 0.6875 C 18.996094 0.839844 18.917969 0.914062 18.765625 0.914062 C 18.617188 0.914062 18.539062 0.839844 18.539062 0.6875 C 18.539062 0.539062 18.617188 0.460938 18.765625 0.460938 C 18.917969 0.460938 18.996094 0.539062 18.996094 0.6875 Z M 18.996094 0.6875 "/><path style=" stroke:none;fill-rule:nonzero;fill:#ffffff;fill-opacity:1;" d="M 20.195312 0.6875 C 20.195312 0.839844 20.121094 0.914062 19.96875 0.914062 C 19.816406 0.914062 19.742188 0.839844 19.742188 0.6875 C 19.742188 0.539062 19.816406 0.460938 19.96875 0.460938 C 20.121094 0.460938 20.195312 0.539062 20.195312 0.6875 Z M 20.195312 0.6875 "/><path style=" stroke:none;fill-rule:nonzero;fill:#ffffff;fill-opacity:1;" d="M 21.394531 0.6875 C 21.394531 0.839844 21.320312 0.914062 21.167969 0.914062 C 21.015625 0.914062 20.941406 0.839844 20.941406 0.6875 C 20.941406 0.539062 21.015625 0.460938 21.167969 0.460938 C 21.320312 0.460938 21.394531 0.539062 21.394531 0.6875 Z M 21.394531 0.6875 "/><path style=" stroke:none;fill-rule:nonzero;fill:#27254c;fill-opacity:1;" d="M 25.386719 2.390625 L 19.84375 2.390625 C 19.832031 2.390625 19.824219 2.382812 19.824219 2.371094 C 19.824219 2.359375 19.832031 2.347656 19.84375 2.347656 L 25.386719 2.347656 C 25.398438 2.347656 25.40625 2.359375 25.40625 2.371094 C 25.40625 2.382812 25.398438 2.390625 25.386719 2.390625 Z M 25.386719 2.390625 "/><path style=" stroke:none;fill-rule:nonzero;fill:#bfc9d1;fill-opacity:1;" d="M 28.003906 11.675781 C 27.992188 11.675781 27.980469 11.667969 27.980469 11.65625 L 27.980469 2.757812 C 27.980469 2.746094 27.992188 2.734375 28.003906 2.734375 C 28.015625 2.734375 28.023438 2.746094 28.023438 2.757812 L 28.023438 11.65625 C 28.023438 11.667969 28.015625 11.675781 28.003906 11.675781 Z M 28.003906 11.675781 "/><path style=" stroke:none;fill-rule:nonzero;fill:#6db0f4;fill-opacity:1;" d="M 28.777344 13.632812 C 28.765625 13.632812 28.757812 13.625 28.757812 13.613281 L 28.757812 6.660156 C 28.757812 6.648438 28.765625 6.636719 28.777344 6.636719 C 28.789062 6.636719 28.800781 6.648438 28.800781 6.660156 L 28.800781 13.613281 C 28.800781 13.625 28.789062 13.632812 28.777344 13.632812 Z M 28.777344 13.632812 "/><path style=" stroke:none;fill-rule:nonzero;fill:#fccf36;fill-opacity:1;" d="M 24.9375 10.507812 C 24.9375 10.59375 24.894531 10.640625 24.804688 10.640625 C 24.71875 10.640625 24.675781 10.59375 24.675781 10.507812 C 24.675781 10.417969 24.71875 10.375 24.804688 10.375 C 24.894531 10.375 24.9375 10.417969 24.9375 10.507812 Z M 24.9375 10.507812 "/><path style=" stroke:none;fill-rule:nonzero;fill:#309d6d;fill-opacity:0.74;" d="M 20.4375 5.992188 L 21.011719 5.007812 L 21.464844 5.585938 L 22.132812 4.214844 L 22.703125 5.992188 Z M 20.4375 5.992188 "/><path style=" stroke:none;fill-rule:nonzero;fill:#27254c;fill-opacity:0.74;" d="M 23.28125 6.023438 L 19.738281 6.023438 C 19.722656 6.023438 19.707031 6.007812 19.707031 5.992188 L 19.707031 3.765625 C 19.707031 3.746094 19.722656 3.734375 19.738281 3.734375 L 23.28125 3.734375 C 23.300781 3.734375 23.3125 3.746094 23.3125 3.765625 L 23.3125 5.992188 C 23.3125 6.007812 23.300781 6.023438 23.28125 6.023438 Z M 19.769531 5.960938 L 23.25 5.960938 L 23.25 3.796875 L 19.769531 3.796875 Z M 19.769531 5.960938 "/><path style=" stroke:none;fill-rule:nonzero;fill:#309d6d;fill-opacity:0.74;" d="M 21.1875 4.359375 C 21.1875 4.46875 21.132812 4.523438 21.023438 4.523438 C 20.914062 4.523438 20.859375 4.46875 20.859375 4.359375 C 20.859375 4.25 20.914062 4.195312 21.023438 4.195312 C 21.132812 4.195312 21.1875 4.25 21.1875 4.359375 Z M 21.1875 4.359375 "/><path style=" stroke:none;fill-rule:nonzero;fill:#27254c;fill-opacity:1;" d="M 12.9375 7.175781 C 12.773438 7.183594 12.605469 7.1875 12.4375 7.175781 C 12.410156 7.175781 12.402344 7.167969 12.394531 7.140625 C 12.371094 6.988281 12.351562 6.835938 12.320312 6.6875 C 12.199219 6.054688 11.863281 5.507812 11.277344 5.234375 C 11.292969 5.148438 11.316406 5.066406 11.292969 4.984375 C 11.253906 4.851562 11.085938 4.796875 10.953125 4.835938 C 10.832031 4.871094 10.726562 4.960938 10.636719 5.066406 C 9.3125 4.964844 8.371094 6.300781 8.152344 7.59375 C 8 7.761719 7.898438 8.027344 7.859375 8.246094 C 7.8125 8.5 7.84375 8.773438 7.976562 9 C 8.035156 9.097656 8.105469 9.1875 8.183594 9.277344 C 8.320312 9.863281 8.605469 10.273438 8.921875 10.503906 C 8.933594 10.542969 8.945312 10.578125 8.957031 10.617188 C 9.167969 11.3125 9.144531 12.054688 8.980469 12.765625 C 8.859375 13.292969 8.695312 13.816406 8.648438 14.359375 C 8.597656 14.898438 8.679688 15.476562 9.011719 15.910156 C 8.539062 16.007812 8.058594 16.054688 7.574219 16.054688 C 7.480469 16.054688 7.382812 16.050781 7.300781 16.003906 C 7.230469 15.960938 7.179688 15.886719 7.136719 15.816406 C 6.921875 15.449219 6.839844 15.019531 6.765625 14.601562 C 6.660156 15.128906 6.734375 15.6875 6.976562 16.167969 C 6.957031 16.128906 6.507812 16.082031 6.441406 16.066406 C 5.945312 15.9375 5.320312 15.667969 4.878906 15.417969 C 4.265625 15.074219 3.742188 14.582031 3.363281 13.988281 C 3.667969 14.058594 3.992188 14.007812 4.292969 13.921875 C 4.511719 13.863281 4.734375 13.777344 4.90625 13.628906 C 5.132812 13.441406 5.261719 13.164062 5.324219 12.878906 C 5.421875 12.441406 5.242188 11.921875 5.53125 11.554688 C 5.757812 11.269531 6.15625 11.164062 6.394531 10.890625 C 6.644531 10.597656 6.667969 10.179688 6.679688 9.796875 C 6.695312 9.292969 6.710938 8.785156 6.726562 8.28125 C 6.738281 7.785156 6.710938 7.261719 6.769531 6.765625 C 6.863281 6.015625 6.914062 5.164062 7.382812 4.53125 C 7.660156 4.15625 8.058594 3.894531 8.46875 3.671875 C 9.125 3.3125 9.847656 3.027344 10.59375 3.050781 C 11.507812 3.074219 11.777344 3.636719 11.675781 3.996094 C 11.820312 3.933594 11.96875 3.882812 12.125 3.882812 C 12.453125 3.882812 12.679688 4.210938 12.777344 4.492188 C 12.921875 4.917969 12.863281 5.359375 12.863281 5.796875 C 12.859375 6.113281 12.886719 6.496094 12.949219 6.902344 C 12.964844 6.988281 12.992188 7.066406 12.960938 7.15625 C 12.960938 7.164062 12.957031 7.167969 12.953125 7.171875 C 12.949219 7.175781 12.945312 7.175781 12.9375 7.175781 Z M 12.9375 7.175781 "/><path style=" stroke:none;fill-rule:nonzero;fill:#ffc2a5;fill-opacity:1;" d="M 8.203125 7.6875 C 8.140625 7.503906 7.96875 7.359375 7.777344 7.328125 C 7.582031 7.292969 7.375 7.367188 7.238281 7.507812 C 6.96875 7.789062 6.992188 8.261719 7.320312 8.554688 C 7.460938 8.679688 7.644531 8.757812 7.832031 8.746094 C 8.019531 8.730469 8.203125 8.617188 8.273438 8.445312 "/><path style=" stroke:none;fill-rule:nonzero;fill:#e0916e;fill-opacity:1;" d="M 7.792969 8.316406 C 7.585938 8.234375 7.511719 8.0625 7.554688 7.925781 C 7.59375 7.8125 7.722656 7.738281 7.847656 7.757812 C 7.960938 7.773438 8.0625 7.863281 8.097656 7.980469 C 8.105469 8.003906 8.09375 8.027344 8.074219 8.03125 C 8.050781 8.039062 8.027344 8.027344 8.023438 8.007812 C 7.992188 7.917969 7.917969 7.851562 7.835938 7.835938 C 7.75 7.824219 7.65625 7.875 7.632812 7.953125 C 7.601562 8.046875 7.65625 8.175781 7.824219 8.242188 C 7.84375 8.25 7.855469 8.273438 7.847656 8.292969 C 7.839844 8.3125 7.816406 8.324219 7.792969 8.316406 Z M 7.792969 8.316406 "/><path style=" stroke:none;fill-rule:nonzero;fill:#27254c;fill-opacity:1;" d="M 4.273438 13.28125 C 4.269531 13.265625 4.277344 13.25 4.292969 13.242188 C 4.558594 13.148438 4.777344 12.925781 4.855469 12.65625 C 4.929688 12.402344 4.890625 12.144531 4.847656 11.871094 C 4.804688 11.597656 4.75 11.265625 4.871094 11.042969 C 5.046875 10.730469 5.660156 10.539062 5.992188 10.164062 C 6.195312 9.933594 6.328125 9.605469 6.371094 9.210938 C 6.410156 8.859375 6.378906 8.5 6.367188 8.152344 C 6.339844 7.375 6.398438 6.71875 6.550781 6.140625 C 6.734375 5.433594 7.0625 4.824219 7.507812 4.371094 C 7.519531 4.359375 7.539062 4.359375 7.550781 4.371094 C 7.5625 4.382812 7.5625 4.402344 7.550781 4.414062 C 7.113281 4.859375 6.789062 5.460938 6.609375 6.15625 C 6.417969 6.886719 6.402344 7.609375 6.4375 8.355469 C 6.449219 8.636719 6.464844 8.929688 6.433594 9.214844 C 6.386719 9.621094 6.25 9.964844 6.039062 10.203125 C 5.792969 10.480469 5.449219 10.632812 5.152344 10.84375 C 4.929688 11.003906 4.847656 11.136719 4.859375 11.441406 C 4.875 11.847656 5.03125 12.269531 4.914062 12.671875 C 4.828125 12.960938 4.597656 13.203125 4.3125 13.300781 C 4.296875 13.304688 4.28125 13.296875 4.273438 13.28125 Z M 4.273438 13.28125 "/><path style=" stroke:none;fill-rule:nonzero;fill:#18142e;fill-opacity:1;" d="M 6.773438 14.652344 C 6.371094 13.007812 7.820312 11.425781 7.5 9.804688 C 7.496094 9.785156 7.511719 9.761719 7.53125 9.757812 C 7.554688 9.753906 7.578125 9.769531 7.582031 9.789062 C 7.90625 11.4375 6.457031 13.023438 6.851562 14.632812 C 6.859375 14.652344 6.84375 14.675781 6.824219 14.679688 C 6.800781 14.683594 6.777344 14.671875 6.773438 14.652344 Z M 6.773438 14.652344 "/><path style=" stroke:none;fill-rule:nonzero;fill:#ffffff;fill-opacity:1;" d="M 18.75 25.21875 C 18.894531 25.542969 19.195312 25.796875 19.464844 25.910156 C 19.492188 25.898438 19.953125 25.699219 20.144531 25.214844 C 20.144531 25.214844 20.3125 24.871094 19.945312 24.640625 C 19.945312 24.640625 19.660156 24.480469 19.4375 24.875 C 19.199219 24.480469 18.921875 24.644531 18.921875 24.644531 C 18.566406 24.875 18.75 25.21875 18.75 25.21875 Z M 18.75 25.21875 "/></g></svg>